<svg xmlns="http://www.w3.org/2000/svg" viewBox="0 0 874.1 974.88"><defs><style>.cls-1,.cls-2,.cls-3,.cls-4{fill:none;stroke:#000;stroke-miterlimit:10;}.cls-2{stroke-dasharray:3.99 3.99;}.cls-3{stroke-dasharray:3.99 3.99;}.cls-4{stroke-dasharray:4 4;}</style></defs><title>India</title><g id="Layer_2" data-name="Layer 2"><g id="Layer_2-2" data-name="Layer 2"><path class="cls-1" d="M340.75,902.61l2,.13s-.08-.71-.21-2"/><path class="cls-2" d="M342.11,896.79c-.55-5.26-1.4-13.33-2.25-21.41-1.44-13.68-3.6-20.16,5.76-34.56s15.12-31.68,12.24-38.16-21.6-39.36-8.64-61.44,20.16-30,24.48-22.8,2.88,7.92,9.36.72S391,703.3,400.34,704s22.32-2.16,22.32-10.08-11.52-9.36,0-17.28,35.28-13.68,43.2-25.2,12.24-33.12,40.32-49.68,35.28-11.52,46.08-28.08-6.48-27.68,18-39,27.36-17.84,24.48-23.6,10.08-8.64,8.64,0-3.6,15.84,4.32,6.48,13-16.56,8.64-17.28,7.2,0,5.76-11.52-7.2-6.48-7.2-17.28-11.52-10.8-5-15.84,13-15.84,3.6-16.56-20.16-5-20.16-13,3.6-8.64,5.76-6.48,8.64,7.26,7.92-1.05-2.16-13.35,5.76-10.47,18.72,9.89,5.76-.81S607,395.14,597.62,393s1.44-12.24,4.32-20.16,2.88-10.8,8.64-5.76,9.17-3.6,13.95,4.32,8.37,13,11.25,9.36,7.92-9.36,10.8-2.88-5.76,29.52,14.4,31,46.8-7.92,56.88-.72,4.32,0,3.6,12.24.72,14.4-8.64,18.72-28.08,6.48-22.32,18.72,5.76,15.12,9.36,19.44,7.2,11.52,10.08-2.16,3.6-19.44,8.64-18,6.48,2.88,8.64,14.4,2.16,26.64,10.8,33.12,10.08,8.64,14.4,0-3.6-10.8,0-18.72,10.8-18.72,7.92-29.52-7.2-22.32-2.88-18,8.64,8.64,14.4,8.64a21.46,21.46,0,0,1,7.95,1.81"/><path class="cls-1" d="M781.63,449.63c1.09.54,1.75.95,1.75.95a15.15,15.15,0,0,1-.26-2"/><path class="cls-3" d="M783.09,444.62A38.71,38.71,0,0,1,787.7,429c6.48-12.24,16.56-22.32,10.8-26.64s-5.93.72,1.71-12.24-1-33.12,6.93-36,16.56-19.44,31.68-23.76,28.8,8.64,26.64,3.6-17.28-13-8.64-18.72,20.16-9.36,15.84-13-6.48-7.92-15.12-9.36-25.2,5.76-20.16,0,13.68-13,7.92-17.28-15.12,11.52-13.68,0,6.48-17.28,0-18.72-18,7.2-18,12.24-4.32,3.6-9.36,1.44-10.08,2.88-13-2.88-2.88-5-10.08-1.44-7.92,20.88-15.84,20.88-20.16-2.16-20.88,6.48-8.64,9.36-11.52,13-3.6,12.24-9.36,10.8-8.64-1.44-11.52,0-9.36-1.44-11.52,2.16-6.48,6.48,0,7.92,10.08,0,10.8,6.48,5,13.68.72,13.68-5.76,7.92-13.68,7.2-14.4,1.44-24.48-.72-14.4-5.76-18.72-2.16-7.92,8.64-15.84,6.48-22.32.72-23-10.08-5.76-16.56-4.32-23,10.8-10.08,0-11.52-17.28-.72-20.16,10.08-7.92,16.56-2.88,22.32,7.92,15.12,5.76,19.44-10.08,2.88-18,3.6-15.84,4.32-15.84.72-2.88-6.48-5.76-3.6-2.16,0-12.24-1.44-18.72,3.6-19.44-2.16-6.48-6.48-11.52-5-6.48-4.32-13.68-5-5.76-6.48-13-9.36-12.24-8.64-15.84-7.2-8.64,2.16-14.4,2.16-7.92,3.6-15.12-.72-20.16-6.48-26.64-10.08-4.32,1.44-23-13.68-20.88-20.16-24.48-17.28-23-.72-18.72-7.2,5-3.6,7.2-14.4,14.4-23,18.72-27.36-3.6-10.8-10.8-15.84-9.36-15.12-18-13.68-20.88-6.48-22.32-13.68c-.86-4.3-4.56-3.46-7.39-2.08"/><path class="cls-1" d="M312.72,203.22c-1,.61-1.66,1.12-1.66,1.12s.37-.37.55-1.9"/><path class="cls-4" d="M311.61,198.45a76.21,76.21,0,0,0-2-11.39c-3.6-15.12-11.52-23-4.32-26.64s5.76,6.48,10.08,7.2,9.36-8,13.68-8,7.2-2.83,5-6.43,4.32-15.12-4.32-15.84-15.12,1.44-13-7.92-5-19.44,2.88-19.44,14.4,5.76,14.4-3.6,1.44-13,4.32-13,2.88-4.32,7.2-6.48S357.86,64.66,355,57.46s-4.32-4.32-11.52-7.2-15.12-13.68-18-10.8-7.92,6.48-14.4,6.48S295.94,58.18,283.7,59.62,273.62,51,266.42,50.26,256.34,44.25,252,39s-18-13.2-24.48-19.68S218.9-.14,211,2.74s-13-5.86-18-.41-7.2,8.33-13.68,6.89S162.74-.86,167.78,7.78s2.88,12.24-5,9.36-2.88-5.76-15.12,4.32-20.88,18.72-13.68,20.88,15.84-1.44,17.28,2.16,5,5.76,10.8,7.92.72,7.2,6.48,12.24,13,13.68,6.48,17.28-23,4.32-18.72,23.76-1.44,31,11.52,40.32,20.88,5,23,11.52-.72,6.48,7.92,7.2,14.4,9.36,7.92,12.24-23,4.32-21.6,15.12-8.64,30.24-14.4,37.44,4.32,11.52-5.76,15.12S149.78,253.3,144,267s-13,11.52-20.88,19.44-10.08,14.4-16.56,23.76-2.16,10.8-17.28,13-20.88,7.92-22.32,0-7.92-13.68-12.24-5.76-9.36,15.84-16.56,20.88S23.78,357,36,359.14s19.44,5,16.56,13.68-5.76,16.56,4.32,18.72,7.92,11.52,13,21.6,12.24,13,4.32,21.6-11.52,10.08-14.4,3.6-12.24,10.08-20.88,7.2-9.36-8.64-19.44-8.64-18,6.48-18,15.12-2.16,7.92,0,15.12,14.4,25.48,31.68,20.3S68.42,470,57.62,483.7s-15.84,18.72-28.08,20.16-32.76-11.13-10.08,13c0,0,3.6,9.36,10.8,9.36S46.1,562.9,72,555.7s46.08-18,40.32-27.36-9.36-21.6,5-20.16-4.32,12.24,0,18.72,9.64,27.36,5.54,43.2.94,70.56,13.9,115.2,32.4,69.12,37.44,94.32,14.4,54,28.8,72.72,31.68,71.28,33.84,73.44-5,0,0,13.68,20.16,38.16,31,34.56a40,40,0,0,0,24.48-23.76c4.32-11.52,15.84-15.84,18-15.12s4.32-17.28,9.36-20.16,1.44-13.68,12.24-13l6.81.46"/></g></g></svg>