<svg xmlns="http://www.w3.org/2000/svg" viewBox="0 0 612.19 612"><defs><style>.cls-1{fill:#f2f2f2;}</style></defs><title>outer2</title><g id="Layer_2" data-name="Layer 2"><g id="Layer_3" data-name="Layer 3"><path class="cls-1" d="M295.1,612c-7.43-.26-14.93-.8-22.29-1.6l.11-1c7.34.8,14.81,1.33,22.21,1.59Zm22.35,0,0-1c7.42-.27,14.89-.81,22.22-1.61l.11,1C332.39,611.17,324.89,611.72,317.45,612Zm-66.76-4.8c-7.3-1.33-14.64-3-21.83-4.82l.26-1c7.16,1.86,14.48,3.48,21.75,4.81Zm111.17-.06-.19-1c7.29-1.34,14.61-3,21.75-4.84l.26,1C376.51,604.15,369.17,605.78,361.86,607.13ZM207.45,596c-7-2.39-14.07-5.08-20.9-8l.39-.94c6.82,2.9,13.83,5.57,20.84,8Zm197.63-.11-.33-1c7-2.38,14-5.06,20.78-8l.4.94C419.11,590.75,412.1,593.44,405.08,595.84ZM166.29,578.47c-6.6-3.39-13.16-7.08-19.51-11l.53-.87c6.33,3.86,12.87,7.54,19.44,10.92Zm279.85-.12-.47-.9c6.57-3.39,13.1-7.06,19.41-10.92l.53.87C459.28,571.27,452.73,575,446.14,578.35Zm-318-23.18c-6-4.32-12-8.92-17.69-13.66l.65-.79c5.68,4.74,11.62,9.32,17.64,13.63Zm356.1-.12-.59-.83c6-4.3,11.94-8.89,17.62-13.62l.65.78C496.21,546.13,490.26,550.73,484.23,555.05ZM93.78,526.59c-5.34-5.15-10.57-10.56-15.53-16.08l.76-.68c4.94,5.51,10.15,10.9,15.48,16Zm424.77-.13-.7-.74c5.33-5.14,10.53-10.54,15.47-16l.75.68C529.12,515.88,523.9,521.29,518.55,526.46ZM63.94,493.35c-4.55-5.88-8.93-12-13-18.16l.84-.56c4.09,6.15,8.46,12.24,13,18.1Zm484.44-.17-.8-.62c4.53-5.85,8.89-11.95,13-18.12l.85.57C557.31,481.2,552.92,487.31,548.38,493.18Zm-509.15-37C35.6,449.68,32.15,443,29,436.29l.92-.43c3.15,6.69,6.58,13.35,10.21,19.78Zm533.85-.21-.89-.5c3.63-6.45,7.07-13.12,10.22-19.82l.91.43C580.17,442.76,576.72,449.45,573.08,455.93ZM20.23,415.75c-2.66-6.92-5.1-14-7.24-21.14l1-.3c2.14,7.08,4.57,14.18,7.22,21.08Zm571.85-.3-1-.37c2.65-6.92,5.07-14,7.2-21.11l1,.29C597.17,401.37,594.74,408.5,592.08,415.45ZM7.33,373c-1.61-7.23-3-14.62-4.06-22l1-.14c1.08,7.32,2.44,14.69,4.05,21.9Zm597.61-.35-1-.22c1.6-7.21,2.95-14.58,4-21.91l1,.15C607.9,358,606.55,365.4,604.94,372.63ZM.83,328.79C.29,321.4,0,313.89,0,306.45H1c0,7.41.28,14.9.82,22.26Zm610.56-.36-1-.07c.53-7.36.8-14.85.8-22.26v-.73h1v.74C612.19,313.54,611.92,321.05,611.39,328.43ZM1.79,284.19l-1-.08c.52-7.41,1.33-14.88,2.39-22.22l1,.15C3.12,269.35,2.31,276.8,1.79,284.19Zm608.53-1.09c-.55-7.39-1.38-14.84-2.46-22.14l1-.15c1.08,7.33,1.91,14.8,2.47,22.22Zm-602.15-43-1-.22c1.6-7.24,3.49-14.52,5.62-21.63l1,.29C11.64,225.65,9.76,232.9,8.17,240.12Zm595.62-1.06c-1.62-7.22-3.53-14.47-5.67-21.54l1-.3c2.15,7.1,4.07,14.37,5.69,21.62ZM20.92,197.46l-1-.36c2.65-6.94,5.59-13.87,8.74-20.6l.92.43C26.49,183.64,23.56,190.55,20.92,197.46Zm570-1c-2.66-6.9-5.6-13.78-8.76-20.46l.92-.44c3.17,6.71,6.12,13.61,8.79,20.53ZM39.81,157.1l-.88-.5c3.63-6.48,7.55-12.9,11.64-19.1l.85.56C47.34,144.24,43.43,150.64,39.81,157.1Zm532.08-.88c-3.64-6.43-7.56-12.82-11.66-19l.85-.57c4.11,6.18,8,12.58,11.69,19ZM64.38,119.93l-.8-.62c4.53-5.88,9.34-11.66,14.29-17.2l.75.68C73.69,108.31,68.9,114.07,64.38,119.93Zm482.84-.76c-4.53-5.84-9.34-11.59-14.29-17.09l.75-.68c5,5.52,9.79,11.29,14.34,17.14ZM94.07,86.73,93.36,86C98.7,80.84,104.3,75.81,110,71.06l.65.78C105,76.58,99.39,81.59,94.07,86.73Zm423.36-.66C512.1,80.94,506.51,76,500.81,71.22l.65-.78c5.72,4.74,11.33,9.76,16.68,14.9ZM128.24,58.19l-.59-.82c6-4.33,12.29-8.5,18.61-12.38l.53.87C140.49,49.73,134.25,53.87,128.24,58.19Zm354.92-.57c-6-4.3-12.29-8.43-18.6-12.28l.52-.86c6.34,3.86,12.62,8,18.67,12.32Zm-317-22.7-.47-.9c6.59-3.41,13.39-6.61,20.2-9.53l.4.94C179.52,28.33,172.75,31.52,166.18,34.92Zm278.92-.47c-6.59-3.38-13.39-6.56-20.2-9.44l.4-.93c6.83,2.89,13.65,6.08,20.27,9.47Zm-238-17-.33-1c7-2.41,14.22-4.58,21.4-6.47l.26,1C221.25,12.87,214.08,15,207.08,17.44Zm197-.36c-7-2.37-14.18-4.51-21.34-6.37l.25-1c7.19,1.86,14.39,4,21.42,6.39ZM250.15,6.13l-.19-1c7.29-1.36,14.73-2.45,22.11-3.27l.11,1C264.82,3.69,257.41,4.79,250.15,6.13ZM361,5.93c-7.27-1.32-14.69-2.39-22.05-3.17l.11-1c7.38.79,14.83,1.86,22.12,3.18ZM294.4,1.23l0-1c7.38-.28,14.94-.29,22.35,0l0,1C309.29.94,301.76,1,294.4,1.23Z"/></g></g></svg>