<svg xmlns="http://www.w3.org/2000/svg" viewBox="0 0 683.71 683.71"><defs><style>.cls-1{fill:#f2f2f2;}</style></defs><title>outer</title><g id="Layer_2" data-name="Layer 2"><g id="Layer_3" data-name="Layer 3"><path class="cls-1" d="M683.71,341.36a339.26,339.26,0,0,0-14.66-99H656.72a333.78,333.78,0,0,0-215.36-217V15a341.44,341.44,0,0,0-199-.32V23.8A333.78,333.78,0,0,0,22,242.36H15a341.44,341.44,0,0,0-.32,199H21.9A333.79,333.79,0,0,0,242.36,660.2v8.53a341.44,341.44,0,0,0,199,.32V658.62A333.79,333.79,0,0,0,656.81,441.36h11.92A339,339,0,0,0,683.71,341.36ZM441.36,657.42v-1.09a326.22,326.22,0,0,1-199-.33v3A333,333,0,0,1,23.07,441.36h4.32a326.12,326.12,0,0,1,.32-199H23.17A333,333,0,0,1,242.36,25v2.4a326.12,326.12,0,0,1,199,.32V26.58c133,43.12,229.5,168.21,229.5,315.42S574.39,614.3,441.36,657.42Z"/></g></g></svg>