<svg xmlns="http://www.w3.org/2000/svg" viewBox="0 0 237.94 1095"><defs><style>.cls-1{fill:#888;opacity:0.2;}</style></defs><title>newArc</title><g id="Layer_2" data-name="Layer 2"><g id="Layer_4" data-name="Layer 4"><path class="cls-1" d="M105.7,969.67a773.72,773.72,0,0,1-93.85,113.74Q6,1089.27,0,1095H1.44c145.77-140,236.5-336.91,236.5-555,0-210.41-84.46-401.08-221.31-540H15.22A773.1,773.1,0,0,1,105.7,110.33a768.64,768.64,0,0,1,70.85,130.54A763.7,763.7,0,0,1,236.94,540a763.7,763.7,0,0,1-60.39,299.13A768.64,768.64,0,0,1,105.7,969.67Z"/></g></g></svg>