<?xml version="1.0" encoding="utf-8"?>
<!-- Generator: Adobe Illustrator 24.0.1, SVG Export Plug-In . SVG Version: 6.00 Build 0)  -->
<svg version="1.1" id="Layer_1" xmlns="http://www.w3.org/2000/svg" xmlns:xlink="http://www.w3.org/1999/xlink" x="0px" y="0px"
	 viewBox="0 0 2324.5 1603.9" style="enable-background:new 0 0 2324.5 1603.9;" xml:space="preserve">
<style type="text/css">
	.st0{fill:url(#SVGID_1_);}
	.st1{fill:url(#SVGID_2_);}
	.st2{fill:#FFFFFF;}
	.st3{fill:url(#SVGID_3_);}
	.st4{fill:#EEEEEF;}
	.st5{fill:#27B570;}
	.st6{fill:#0E8E4B;}
	.st7{fill:#F4C02F;}
	.st8{fill:url(#SVGID_4_);}
	.st9{fill:#D8D9DD;}
	.st10{fill:#2D2D2D;}
	.st11{fill:url(#SVGID_5_);}
	.st12{fill:url(#SVGID_6_);}
	.st13{fill:#58C3F0;}
	.st14{fill:url(#SVGID_7_);}
	.st15{fill:url(#SVGID_8_);}
	.st16{fill:#D3DF34;}
	.st17{fill:url(#SVGID_9_);}
	.st18{fill:none;stroke:#515151;stroke-width:2;stroke-miterlimit:10;}
	.st19{fill:#515151;}
</style>
<g>
	<g>
		<g>
			<g>
				
					<radialGradient id="SVGID_1_" cx="1254.8082" cy="-2041.6143" r="621.1223" gradientTransform="matrix(1 0 0 -1 0 -1426.2681)" gradientUnits="userSpaceOnUse">
					<stop  offset="3.760000e-02" style="stop-color:#D8D9DD"/>
					<stop  offset="0.5538" style="stop-color:#EEEEEF"/>
					<stop  offset="1" style="stop-color:#F7F7F8"/>
				</radialGradient>
				<path class="st0" d="M1646.9,816.4c0-54.6-20.4-104.5-54-142.4c-39.1-41-94.3-66.5-155.5-66.5c-118.7,0-214.9,96.2-214.9,214.9
					c0,54.6,20.4,104.5,54,142.4c39.1,41,94.3,66.5,155.5,66.5C1550.7,1031.3,1646.9,935.1,1646.9,816.4z"/>
			</g>
			<g>
				
					<radialGradient id="SVGID_2_" cx="1431.4241" cy="-2227.5442" r="257.4256" gradientTransform="matrix(1 0 0 -1 0 -1426.2681)" gradientUnits="userSpaceOnUse">
					<stop  offset="0" style="stop-color:#838383"/>
					<stop  offset="0.3118" style="stop-color:#848585;stop-opacity:0.6882"/>
					<stop  offset="0.4856" style="stop-color:#8B8A8B;stop-opacity:0.5144"/>
					<stop  offset="0.6256" style="stop-color:#959595;stop-opacity:0.3744"/>
					<stop  offset="0.7474" style="stop-color:#A6A5A5;stop-opacity:0.2526"/>
					<stop  offset="0.8574" style="stop-color:#BDBBBC;stop-opacity:0.1426"/>
					<stop  offset="0.9576" style="stop-color:#DBDBDC;stop-opacity:4.240000e-02"/>
					<stop  offset="1" style="stop-color:#EEEEEF;stop-opacity:0"/>
				</radialGradient>
				<path class="st1" d="M1313.9,930.4l100.2,100.2c5.9,0.5,11.9,0.7,17.9,0.7c118.7,0,214.9-96.2,214.9-214.9
					c0-3.4-0.1-6.8-0.2-10.2l-72.9-72.9L1313.9,930.4z"/>
				<g>
					<g>
						<g>
							<path class="st2" d="M1596.7,817.1c0,90.6-73.5,164.1-164.1,164.1c-90.6,0-164.1-73.5-164.1-164.1S1342,653,1432.6,653
								C1523.3,653,1596.7,726.5,1596.7,817.1z"/>
						</g>
					</g>
				</g>
				<g>
					
						<radialGradient id="SVGID_3_" cx="1296.2864" cy="-2088.5378" r="474.2899" gradientTransform="matrix(1 0 0 -1 0 -1426.2681)" gradientUnits="userSpaceOnUse">
						<stop  offset="0" style="stop-color:#F7F7F8"/>
						<stop  offset="0.6406" style="stop-color:#FDFDFE"/>
						<stop  offset="0.7151" style="stop-color:#FFFFFF"/>
					</radialGradient>
					<path class="st3" d="M1595.7,815.8c0-41.7-15.6-79.8-41.2-108.8c-29.9-31.3-72-50.8-118.7-50.8c-90.6,0-164.1,73.5-164.1,164.1
						c0,41.7,15.6,79.8,41.2,108.8c29.9,31.3,72,50.8,118.7,50.8C1522.2,979.9,1595.7,906.4,1595.7,815.8z"/>
				</g>
				<g>
					<g>
						<path class="st4" d="M1580.1,745.1c9.1,20.4,14.1,42.9,14.1,66.7c0,90.6-73.5,164.1-164.1,164.1
							c-54.5,0-102.7-26.5-132.6-67.4c4.8,7.7,10.3,15.1,16.3,21.9c29.9,31.3,72,50.8,118.7,50.8c90.6,0,164.1-73.5,164.1-164.1
							C1596.7,791.3,1590.8,766.9,1580.1,745.1z"/>
					</g>
				</g>
			</g>
		</g>
		<path class="st5" d="M1434.7,554.3c70.8,0,137.4,27.6,187.4,77.6s77.6,116.6,77.6,187.4s-27.6,137.4-77.6,187.4
			c-50.1,50.1-116.6,77.6-187.4,77.6s-137.4-27.6-187.4-77.6s-77.6-116.6-77.6-187.4s27.6-137.4,77.6-187.4
			C1297.3,581.9,1363.9,554.3,1434.7,554.3 M1434.7,570.2c-137.6,0-249.2,111.6-249.2,249.2s111.6,249.2,249.2,249.2
			s249.2-111.6,249.2-249.2C1683.9,681.8,1572.3,570.2,1434.7,570.2L1434.7,570.2z"/>
	</g>
	<g>
		<path class="st6" d="M1312.5,800.2v-50h14.8c4.4,0,8.3,1,11.7,2.9c3.4,2,6.1,4.8,7.9,8.4c1.9,3.6,2.8,7.8,2.8,12.4v2.5
			c0,4.7-0.9,8.9-2.8,12.5s-4.6,6.4-8.1,8.3c-3.5,1.9-7.5,2.9-12,2.9L1312.5,800.2L1312.5,800.2z M1321.2,757.2v36h5.7
			c4.6,0,8-1.4,10.5-4.3s3.7-6.9,3.7-12.3v-2.8c0-5.4-1.2-9.6-3.5-12.4c-2.4-2.9-5.8-4.3-10.3-4.3L1321.2,757.2L1321.2,757.2z"/>
		<path class="st6" d="M1373.9,800.9c-5.3,0-9.6-1.7-12.9-5c-3.3-3.3-4.9-7.8-4.9-13.3v-1c0-3.7,0.7-7,2.1-9.9
			c1.4-2.9,3.4-5.2,6-6.8c2.6-1.6,5.5-2.4,8.6-2.4c5.1,0,9,1.6,11.7,4.8c2.8,3.2,4.1,7.8,4.1,13.7v3.4h-24.3
			c0.3,3.1,1.3,5.5,3.1,7.3c1.8,1.8,4.1,2.7,6.8,2.7c3.8,0,6.9-1.5,9.3-4.6l4.5,4.3c-1.5,2.2-3.5,3.9-5.9,5.2
			C1379.8,800.3,1377,800.9,1373.9,800.9z M1372.9,769.1c-2.3,0-4.1,0.8-5.5,2.4c-1.4,1.6-2.3,3.8-2.7,6.7h15.9v-0.6
			c-0.2-2.8-0.9-4.9-2.2-6.3C1377,769.8,1375.2,769.1,1372.9,769.1z"/>
		<path class="st6" d="M1435.7,800.2h-8.6V778h-22.3v22.2h-8.7v-50h8.7V771h22.3v-20.8h8.6V800.2z"/>
		<path class="st6" d="M1467.4,800.2c-0.4-0.7-0.7-1.9-1-3.5c-2.7,2.8-5.9,4.2-9.7,4.2c-3.7,0-6.8-1.1-9.1-3.2s-3.5-4.8-3.5-7.9
			c0-4,1.5-7,4.4-9.1c2.9-2.1,7.1-3.2,12.6-3.2h5.1v-2.4c0-1.9-0.5-3.5-1.6-4.6c-1.1-1.2-2.7-1.7-4.9-1.7c-1.9,0-3.5,0.5-4.7,1.4
			s-1.8,2.2-1.8,3.6h-8.3c0-2,0.7-3.9,2-5.7s3.2-3.2,5.5-4.2c2.3-1,4.9-1.5,7.8-1.5c4.3,0,7.8,1.1,10.4,3.3c2.6,2.2,3.9,5.3,4,9.2
			v16.7c0,3.3,0.5,6,1.4,8v0.6L1467.4,800.2L1467.4,800.2z M1458.2,794.2c1.6,0,3.2-0.4,4.6-1.2c1.4-0.8,2.5-1.9,3.3-3.2v-7h-4.5
			c-3.1,0-5.4,0.5-7,1.6c-1.6,1.1-2.3,2.6-2.3,4.6c0,1.6,0.5,2.9,1.6,3.8C1455,793.7,1456.4,794.2,1458.2,794.2z"/>
		<path class="st6" d="M1505.4,800.2c-0.4-0.7-0.7-1.9-1-3.5c-2.7,2.8-5.9,4.2-9.7,4.2c-3.7,0-6.8-1.1-9.1-3.2
			c-2.4-2.1-3.5-4.8-3.5-7.9c0-4,1.5-7,4.4-9.1c2.9-2.1,7.1-3.2,12.6-3.2h5.1v-2.4c0-1.9-0.5-3.5-1.6-4.6s-2.7-1.7-4.9-1.7
			c-1.9,0-3.5,0.5-4.7,1.4c-1.2,1-1.8,2.2-1.8,3.6h-8.3c0-2,0.7-3.9,2-5.7c1.3-1.8,3.2-3.2,5.5-4.2c2.3-1,4.9-1.5,7.8-1.5
			c4.3,0,7.8,1.1,10.4,3.3c2.6,2.2,3.9,5.3,4,9.2v16.7c0,3.3,0.5,6,1.4,8v0.6L1505.4,800.2L1505.4,800.2z M1496.2,794.2
			c1.6,0,3.2-0.4,4.6-1.2c1.4-0.8,2.5-1.9,3.3-3.2v-7h-4.5c-3.1,0-5.4,0.5-7,1.6c-1.6,1.1-2.3,2.6-2.3,4.6c0,1.6,0.5,2.9,1.6,3.8
			C1493,793.7,1494.4,794.2,1496.2,794.2z"/>
		<path class="st6" d="M1531.7,754v9h6.5v6.2h-6.5V790c0,1.4,0.3,2.4,0.8,3.1c0.6,0.6,1.6,0.9,3,0.9c1,0,1.9-0.1,2.9-0.3v6.4
			c-1.9,0.5-3.7,0.8-5.5,0.8c-6.4,0-9.6-3.5-9.6-10.6v-21h-6.1v-6.2h6.1v-9L1531.7,754L1531.7,754z"/>
		<path class="st6" d="M1393.7,884.5h-8.7l-22.3-35.4v35.4h-8.7v-50h8.7l22.3,35.6v-35.6h8.6V884.5z"/>
		<path class="st6" d="M1401.6,865.6c0-3.6,0.7-6.9,2.2-9.8c1.4-2.9,3.5-5.2,6.1-6.7c2.6-1.6,5.6-2.3,9-2.3c5,0,9.1,1.6,12.2,4.8
			c3.1,3.2,4.8,7.5,5.1,12.8l0,2c0,3.7-0.7,6.9-2.1,9.8c-1.4,2.9-3.4,5.1-6,6.7c-2.6,1.6-5.6,2.4-9.1,2.4c-5.2,0-9.4-1.7-12.6-5.2
			c-3.1-3.5-4.7-8.1-4.7-13.9V865.6L1401.6,865.6z M1409.9,866.3c0,3.8,0.8,6.8,2.4,9c1.6,2.2,3.8,3.2,6.6,3.2c2.8,0,5-1.1,6.6-3.3
			c1.6-2.2,2.3-5.4,2.3-9.6c0-3.8-0.8-6.7-2.4-8.9c-1.6-2.2-3.8-3.3-6.6-3.3c-2.7,0-4.9,1.1-6.5,3.2
			C1410.7,858.8,1409.9,862,1409.9,866.3z"/>
		<path class="st6" d="M1441.6,865.6c0-5.7,1.3-10.3,4-13.8c2.7-3.5,6.2-5.2,10.7-5.2c3.9,0,7.1,1.4,9.5,4.1v-19h8.3v52.7h-7.5
			l-0.4-3.8c-2.5,3-5.8,4.5-10,4.5c-4.3,0-7.9-1.7-10.6-5.2C1442.9,876.4,1441.6,871.7,1441.6,865.6z M1449.9,866.4
			c0,3.8,0.7,6.7,2.2,8.8c1.4,2.1,3.5,3.2,6.2,3.2c3.4,0,5.9-1.5,7.5-4.6V858c-1.5-3-4-4.5-7.4-4.5c-2.7,0-4.8,1.1-6.2,3.2
			C1450.6,858.9,1449.9,862.1,1449.9,866.4z"/>
		<path class="st6" d="M1499.1,885.2c-5.3,0-9.6-1.7-12.9-5c-3.3-3.3-4.9-7.8-4.9-13.3v-1c0-3.7,0.7-7,2.1-9.9
			c1.4-2.9,3.4-5.2,6-6.8s5.5-2.4,8.6-2.4c5.1,0,9,1.6,11.7,4.8c2.8,3.2,4.1,7.8,4.1,13.7v3.4h-24.3c0.3,3.1,1.3,5.5,3.1,7.3
			c1.8,1.8,4.1,2.7,6.8,2.7c3.8,0,6.9-1.5,9.3-4.6l4.5,4.3c-1.5,2.2-3.5,3.9-5.9,5.2C1505,884.6,1502.2,885.2,1499.1,885.2z
			 M1498.1,853.4c-2.3,0-4.1,0.8-5.5,2.4c-1.4,1.6-2.3,3.8-2.7,6.7h15.9v-0.6c-0.2-2.8-0.9-4.9-2.2-6.3
			C1502.3,854.1,1500.5,853.4,1498.1,853.4z"/>
	</g>
</g>
<g>
	<g>
		<path class="st7" d="M2150.7,779.4c0-39-14.6-74.7-38.6-101.8c-28-29.3-67.4-47.5-111.1-47.5c-84.8,0-153.6,68.8-153.6,153.6
			c0,39,14.6,74.7,38.6,101.8c28,29.3,67.4,47.5,111.1,47.5C2081.9,933,2150.7,864.2,2150.7,779.4z"/>
	</g>
	<g>
		<g>
			<g>
				<g>
					<g>
						<path class="st2" d="M2116.3,781.5c0,64.8-52.5,117.3-117.3,117.3s-117.3-52.5-117.3-117.3s52.5-117.3,117.3-117.3
							S2116.3,716.8,2116.3,781.5z"/>
					</g>
				</g>
			</g>
			<g>
				
					<radialGradient id="SVGID_4_" cx="1902.3979" cy="-2098.0896" r="338.8801" gradientTransform="matrix(1 0 0 -1 0 -1426.2681)" gradientUnits="userSpaceOnUse">
					<stop  offset="0" style="stop-color:#F7F7F8"/>
					<stop  offset="0.6406" style="stop-color:#FDFDFE"/>
					<stop  offset="0.7151" style="stop-color:#FFFFFF"/>
				</radialGradient>
				<path class="st8" d="M2116.3,781.5c0-29.8-11.1-57-29.4-77.7c-21.4-22.4-51.5-36.3-84.8-36.3c-64.8,0-117.3,52.5-117.3,117.3
					c0,29.8,11.1,57,29.5,77.7c21.4,22.4,51.5,36.3,84.8,36.3C2063.8,898.8,2116.3,846.3,2116.3,781.5z"/>
			</g>
			<g>
				<g>
					<path class="st9" d="M2104.5,730.1c6.5,14.6,10.1,30.7,10.1,47.6c0,64.8-52.5,117.3-117.3,117.3c-38.9,0-73.4-19-94.7-48.1
						c3.5,5.5,7.4,10.8,11.7,15.6c21.4,22.4,51.5,36.3,84.8,36.3c64.8,0,117.3-52.5,117.3-117.3
						C2116.3,763.1,2112,745.6,2104.5,730.1z"/>
				</g>
			</g>
		</g>
		<g>
			<path class="st10" d="M1958.1,770h-3.6v-27.1h3.6V770z"/>
			<path class="st10" d="M1967.4,749.9l0.1,2.5c1.5-1.9,3.6-2.9,6-2.9c4.3,0,6.4,2.4,6.5,7.2V770h-3.5v-13.3c0-1.5-0.3-2.5-1-3.2
				c-0.7-0.7-1.7-1-3.1-1c-1.1,0-2.1,0.3-3,0.9c-0.9,0.6-1.5,1.4-2,2.3V770h-3.5v-20.2H1967.4z"/>
			<path class="st10" d="M2002.2,760.2c0,3.1-0.7,5.5-2.1,7.4c-1.4,1.9-3.3,2.8-5.7,2.8c-2.4,0-4.4-0.8-5.8-2.3v9.7h-3.5v-27.9h3.2
				l0.2,2.2c1.4-1.7,3.4-2.6,5.8-2.6c2.4,0,4.3,0.9,5.7,2.7c1.4,1.8,2.1,4.4,2.1,7.6V760.2z M1998.8,759.8c0-2.3-0.5-4.1-1.5-5.4
				c-1-1.3-2.3-2-4-2c-2.1,0-3.7,0.9-4.7,2.8v9.6c1,1.8,2.6,2.8,4.7,2.8c1.6,0,3-0.7,3.9-2C1998.3,764.3,1998.8,762.4,1998.8,759.8z
				"/>
			<path class="st10" d="M2019.1,768c-1.3,1.6-3.3,2.4-5.9,2.4c-2.2,0-3.8-0.6-4.9-1.9c-1.1-1.2-1.7-3.1-1.7-5.6v-13.1h3.5v13
				c0,3.1,1.2,4.6,3.7,4.6c2.6,0,4.4-1,5.3-3v-14.7h3.5V770h-3.3L2019.1,768z"/>
			<path class="st10" d="M2032.3,745v4.9h3.8v2.7h-3.8v12.5c0,0.8,0.2,1.4,0.5,1.8c0.3,0.4,0.9,0.6,1.7,0.6c0.4,0,0.9-0.1,1.6-0.2
				v2.8c-0.9,0.2-1.8,0.4-2.7,0.4c-1.5,0-2.7-0.5-3.5-1.4s-1.2-2.3-1.2-4v-12.5h-3.7v-2.7h3.7V745H2032.3z"/>
			<path class="st10" d="M1937.7,803.8c-3.1-0.9-5.3-2-6.7-3.2c-1.4-1.3-2.1-2.9-2.1-4.8c0-2.1,0.9-3.9,2.6-5.3
				c1.7-1.4,3.9-2.1,6.7-2.1c1.9,0,3.5,0.4,5,1.1c1.5,0.7,2.6,1.7,3.4,3c0.8,1.3,1.2,2.7,1.2,4.2h-3.6c0-1.6-0.5-2.9-1.6-3.9
				c-1-1-2.5-1.4-4.4-1.4c-1.8,0-3.1,0.4-4.1,1.2c-1,0.8-1.5,1.9-1.5,3.2c0,1.1,0.5,2,1.4,2.8c0.9,0.8,2.5,1.5,4.8,2.1
				c2.3,0.6,4,1.3,5.3,2.1c1.3,0.8,2.2,1.6,2.8,2.7c0.6,1,0.9,2.2,0.9,3.6c0,2.2-0.9,4-2.6,5.3c-1.7,1.3-4,2-6.9,2
				c-1.9,0-3.6-0.4-5.2-1.1c-1.6-0.7-2.9-1.7-3.7-2.9c-0.9-1.2-1.3-2.7-1.3-4.2h3.6c0,1.6,0.6,2.9,1.8,3.9c1.2,1,2.8,1.4,4.9,1.4
				c1.9,0,3.3-0.4,4.3-1.2c1-0.8,1.5-1.8,1.5-3.2c0-1.3-0.5-2.4-1.4-3.1C1941.8,805.2,1940.1,804.5,1937.7,803.8z"/>
			<path class="st10" d="M1964.3,813.9c-1.3,1.6-3.3,2.4-5.9,2.4c-2.2,0-3.8-0.6-4.9-1.9c-1.1-1.2-1.7-3.1-1.7-5.6v-13.1h3.5v13
				c0,3.1,1.2,4.6,3.7,4.6c2.6,0,4.4-1,5.3-3v-14.7h3.5v20.2h-3.3L1964.3,813.9z"/>
			<path class="st10" d="M1989.9,806c0,3.1-0.7,5.5-2.1,7.4c-1.4,1.9-3.3,2.8-5.7,2.8c-2.4,0-4.4-0.8-5.8-2.3v9.7h-3.5v-27.9h3.2
				l0.2,2.2c1.4-1.7,3.4-2.6,5.8-2.6c2.4,0,4.3,0.9,5.7,2.7c1.4,1.8,2.1,4.4,2.1,7.6V806z M1986.5,805.6c0-2.3-0.5-4.1-1.5-5.4
				c-1-1.3-2.3-2-4-2c-2.1,0-3.7,0.9-4.7,2.8v9.6c1,1.8,2.6,2.8,4.7,2.8c1.6,0,3-0.7,3.9-2C1986,810.1,1986.5,808.2,1986.5,805.6z"
				/>
			<path class="st10" d="M2011.3,806c0,3.1-0.7,5.5-2.1,7.4c-1.4,1.9-3.3,2.8-5.7,2.8c-2.4,0-4.4-0.8-5.8-2.3v9.7h-3.5v-27.9h3.2
				l0.2,2.2c1.4-1.7,3.4-2.6,5.8-2.6c2.4,0,4.3,0.9,5.7,2.7c1.4,1.8,2.1,4.4,2.1,7.6V806z M2007.9,805.6c0-2.3-0.5-4.1-1.5-5.4
				c-1-1.3-2.3-2-4-2c-2.1,0-3.7,0.9-4.7,2.8v9.6c1,1.8,2.6,2.8,4.7,2.8c1.6,0,3-0.7,3.9-2C2007.4,810.1,2007.9,808.2,2007.9,805.6z
				"/>
			<path class="st10" d="M2019.5,815.9h-3.5v-28.6h3.5V815.9z"/>
			<path class="st10" d="M2025,790.3c0-0.6,0.2-1,0.5-1.4c0.3-0.4,0.9-0.6,1.5-0.6s1.2,0.2,1.5,0.6c0.3,0.4,0.5,0.9,0.5,1.4
				c0,0.6-0.2,1-0.5,1.4s-0.9,0.6-1.5,0.6s-1.2-0.2-1.5-0.6C2025.2,791.4,2025,790.9,2025,790.3z M2028.7,815.9h-3.5v-20.2h3.5
				V815.9z"/>
			<path class="st10" d="M2042.6,816.2c-2.7,0-5-0.9-6.7-2.7c-1.7-1.8-2.6-4.2-2.6-7.2v-0.6c0-2,0.4-3.8,1.1-5.4
				c0.8-1.6,1.8-2.8,3.2-3.7c1.4-0.9,2.9-1.3,4.5-1.3c2.6,0,4.7,0.9,6.1,2.6c1.5,1.7,2.2,4.2,2.2,7.4v1.4h-13.7
				c0.1,2,0.6,3.6,1.7,4.8c1.1,1.2,2.5,1.8,4.2,1.8c1.2,0,2.3-0.2,3.1-0.7c0.9-0.5,1.6-1.2,2.2-2l2.1,1.6
				C2048.5,814.9,2046,816.2,2042.6,816.2z M2042.2,798.1c-1.4,0-2.6,0.5-3.5,1.5c-0.9,1-1.5,2.4-1.8,4.3h10.1v-0.3
				c-0.1-1.8-0.6-3.1-1.4-4.1C2044.8,798.6,2043.6,798.1,2042.2,798.1z"/>
			<path class="st10" d="M2066.2,810.5c0-0.9-0.3-1.6-1.1-2.2c-0.7-0.5-1.9-1-3.7-1.3c-1.8-0.4-3.1-0.8-4.2-1.3
				c-1-0.5-1.8-1.1-2.3-1.9c-0.5-0.7-0.7-1.6-0.7-2.6c0-1.6,0.7-3.1,2.1-4.2c1.4-1.1,3.2-1.7,5.4-1.7c2.3,0,4.1,0.6,5.6,1.8
				c1.4,1.2,2.1,2.7,2.1,4.5h-3.5c0-0.9-0.4-1.8-1.2-2.4c-0.8-0.7-1.8-1-3-1c-1.2,0-2.2,0.3-3,0.8c-0.7,0.6-1.1,1.3-1.1,2.2
				c0,0.8,0.3,1.5,1,1.9c0.7,0.4,1.9,0.8,3.6,1.2c1.7,0.4,3.1,0.9,4.2,1.4c1.1,0.5,1.9,1.2,2.4,1.9c0.5,0.7,0.8,1.7,0.8,2.7
				c0,1.8-0.7,3.2-2.2,4.3s-3.3,1.6-5.6,1.6c-1.6,0-3-0.3-4.3-0.9s-2.2-1.4-2.9-2.4c-0.7-1-1.1-2.1-1.1-3.3h3.5
				c0.1,1.2,0.5,2.1,1.4,2.7c0.9,0.7,2,1,3.4,1c1.3,0,2.4-0.3,3.1-0.8C2065.8,812.1,2066.2,811.4,2066.2,810.5z"/>
		</g>
	</g>
</g>
<g>
	<g>
		
			<linearGradient id="SVGID_5_" gradientUnits="userSpaceOnUse" x1="1349.8827" y1="-1720.5995" x2="2380.3074" y2="-1405.489" gradientTransform="matrix(1 0 0 -1 0 -1426.2681)">
			<stop  offset="0.1548" style="stop-color:#C51F4B"/>
			<stop  offset="0.2569" style="stop-color:#B41E46"/>
		</linearGradient>
		<path class="st11" d="M1593.4,264.1c0-39-14.6-74.7-38.6-101.8c-28-29.3-67.4-47.5-111.1-47.5c-84.8,0-153.6,68.8-153.6,153.6
			c0,39,14.6,74.7,38.6,101.8c28,29.3,67.4,47.5,111.1,47.5C1524.6,417.7,1593.4,348.9,1593.4,264.1z"/>
	</g>
	<g>
		<g>
			<g>
				<g>
					<g>
						<path class="st2" d="M1559,266.2c0,64.8-52.5,117.3-117.3,117.3c-64.8,0-117.3-52.5-117.3-117.3s52.5-117.3,117.3-117.3
							C1506.5,148.9,1559,201.5,1559,266.2z"/>
					</g>
				</g>
			</g>
			<g>
				
					<radialGradient id="SVGID_6_" cx="1345.1156" cy="-1582.7958" r="338.8801" gradientTransform="matrix(1 0 0 -1 0 -1426.2681)" gradientUnits="userSpaceOnUse">
					<stop  offset="0" style="stop-color:#F7F7F8"/>
					<stop  offset="0.6406" style="stop-color:#FDFDFE"/>
					<stop  offset="0.7151" style="stop-color:#FFFFFF"/>
				</radialGradient>
				<path class="st12" d="M1559,266.2c0-29.8-11.1-57-29.4-77.7c-21.4-22.4-51.5-36.3-84.8-36.3c-64.8,0-117.3,52.5-117.3,117.3
					c0,29.8,11.1,57,29.5,77.7c21.4,22.4,51.5,36.3,84.8,36.3C1506.5,383.5,1559,331,1559,266.2z"/>
			</g>
			<g>
				<g>
					<path class="st9" d="M1547.2,214.8c6.5,14.6,10.1,30.7,10.1,47.6c0,64.8-52.5,117.3-117.3,117.3c-38.9,0-73.4-19-94.7-48.1
						c3.5,5.5,7.4,10.8,11.7,15.6c21.4,22.4,51.5,36.3,84.8,36.3c64.8,0,117.3-52.5,117.3-117.3
						C1559,247.8,1554.8,230.3,1547.2,214.8z"/>
				</g>
			</g>
		</g>
		<g>
			<path class="st10" d="M1403.7,242c0,2.7-0.5,5-1.3,7c-0.9,2-2.2,3.5-3.8,4.5s-3.6,1.6-5.7,1.6c-2.1,0-4-0.5-5.7-1.6
				c-1.6-1-2.9-2.6-3.9-4.5c-0.9-1.9-1.4-4.2-1.4-6.8v-2c0-2.6,0.5-4.9,1.4-6.9c0.9-2,2.2-3.5,3.9-4.6c1.7-1.1,3.6-1.6,5.7-1.6
				c2.2,0,4.1,0.5,5.7,1.6c1.7,1.1,2.9,2.6,3.8,4.6s1.3,4.3,1.3,7L1403.7,242L1403.7,242z M1400.1,240.3c0-3.2-0.6-5.7-1.9-7.4
				c-1.3-1.7-3.1-2.6-5.4-2.6c-2.3,0-4,0.9-5.3,2.6c-1.3,1.7-2,4.1-2,7.2v2c0,3.1,0.7,5.6,2,7.4c1.3,1.8,3.1,2.7,5.4,2.7
				s4.1-0.9,5.4-2.5c1.3-1.7,1.9-4.1,2-7.2L1400.1,240.3L1400.1,240.3z"/>
			<path class="st10" d="M1421,252.8c-1.3,1.6-3.3,2.4-5.9,2.4c-2.2,0-3.8-0.6-4.9-1.9c-1.1-1.2-1.7-3.1-1.7-5.6v-13.1h3.5v13
				c0,3.1,1.2,4.6,3.7,4.6c2.6,0,4.4-1,5.3-3v-14.7h3.5v20.2h-3.3L1421,252.8z"/>
			<path class="st10" d="M1434.3,229.7v4.9h3.8v2.7h-3.8v12.5c0,0.8,0.2,1.4,0.5,1.8c0.3,0.4,0.9,0.6,1.7,0.6c0.4,0,0.9-0.1,1.6-0.2
				v2.8c-0.9,0.2-1.8,0.4-2.7,0.4c-1.5,0-2.7-0.5-3.5-1.4s-1.2-2.3-1.2-4v-12.5h-3.7v-2.7h3.7v-4.9L1434.3,229.7L1434.3,229.7z"/>
			<path class="st10" d="M1459.1,244.9c0,3.1-0.7,5.5-2.1,7.4c-1.4,1.9-3.3,2.8-5.7,2.8c-2.4,0-4.4-0.8-5.8-2.3v9.7h-3.5v-27.9h3.2
				l0.2,2.2c1.4-1.7,3.4-2.6,5.8-2.6c2.4,0,4.3,0.9,5.7,2.7s2.1,4.4,2.1,7.6V244.9z M1455.7,244.5c0-2.3-0.5-4.1-1.5-5.4
				c-1-1.3-2.3-2-4-2c-2.1,0-3.7,0.9-4.7,2.8v9.6c1,1.8,2.6,2.8,4.7,2.8c1.6,0,3-0.7,3.9-2C1455.2,249,1455.7,247.1,1455.7,244.5z"
				/>
			<path class="st10" d="M1476,252.8c-1.3,1.6-3.3,2.4-5.9,2.4c-2.2,0-3.8-0.6-4.9-1.9c-1.1-1.2-1.7-3.1-1.7-5.6v-13.1h3.5v13
				c0,3.1,1.2,4.6,3.7,4.6c2.6,0,4.4-1,5.3-3v-14.7h3.5v20.2h-3.3L1476,252.8z"/>
			<path class="st10" d="M1489.2,229.7v4.9h3.8v2.7h-3.8v12.5c0,0.8,0.2,1.4,0.5,1.8c0.3,0.4,0.9,0.6,1.7,0.6c0.4,0,0.9-0.1,1.6-0.2
				v2.8c-0.9,0.2-1.8,0.4-2.7,0.4c-1.5,0-2.7-0.5-3.5-1.4c-0.8-0.9-1.2-2.3-1.2-4v-12.5h-3.7v-2.7h3.7v-4.9L1489.2,229.7
				L1489.2,229.7z"/>
			<path class="st10" d="M1387,300.6v-27.1h8.9c3,0,5.2,0.6,6.6,1.8s2.2,3,2.2,5.4c0,1.3-0.4,2.4-1.1,3.4s-1.7,1.7-3,2.3
				c1.5,0.4,2.6,1.2,3.5,2.3c0.9,1.1,1.3,2.5,1.3,4.1c0,2.4-0.8,4.4-2.4,5.7c-1.6,1.4-3.8,2.1-6.7,2.1L1387,300.6L1387,300.6z
				 M1390.6,285h5.4c1.6,0,2.8-0.4,3.8-1.2c0.9-0.8,1.4-1.9,1.4-3.2c0-1.5-0.4-2.6-1.3-3.3s-2.2-1-4-1h-5.3L1390.6,285L1390.6,285z
				 M1390.6,287.9v9.8h5.9c1.7,0,3-0.4,3.9-1.3c1-0.9,1.4-2,1.4-3.6c0-3.3-1.8-4.9-5.3-4.9L1390.6,287.9L1390.6,287.9z"/>
			<path class="st10" d="M1422.7,298.6c-1.3,1.6-3.3,2.4-5.9,2.4c-2.2,0-3.8-0.6-4.9-1.9c-1.1-1.2-1.7-3.1-1.7-5.6v-13.1h3.5v13
				c0,3.1,1.2,4.6,3.7,4.6c2.6,0,4.4-1,5.3-3v-14.7h3.5v20.2h-3.3L1422.7,298.6z"/>
			<path class="st10" d="M1437.9,295.5l4.7-15.1h3.7l-8.1,23.3c-1.2,3.4-3.2,5-6,5l-0.7-0.1l-1.3-0.2v-2.8l0.9,0.1
				c1.2,0,2.1-0.2,2.7-0.7c0.7-0.5,1.2-1.3,1.6-2.6l0.8-2l-7.2-19.9h3.8L1437.9,295.5z"/>
			<path class="st10" d="M1457.8,300.9c-2.7,0-5-0.9-6.7-2.7s-2.6-4.2-2.6-7.2v-0.6c0-2,0.4-3.8,1.1-5.4c0.8-1.6,1.8-2.8,3.2-3.7
				c1.4-0.9,2.9-1.3,4.5-1.3c2.6,0,4.7,0.9,6.1,2.6c1.5,1.7,2.2,4.2,2.2,7.4v1.4H1452c0.1,2,0.6,3.6,1.7,4.8s2.5,1.8,4.2,1.8
				c1.2,0,2.3-0.2,3.1-0.7c0.9-0.5,1.6-1.2,2.2-2l2.1,1.6C1463.7,299.6,1461.2,300.9,1457.8,300.9z M1457.3,282.9
				c-1.4,0-2.6,0.5-3.5,1.5s-1.5,2.4-1.8,4.3h10.1v-0.3c-0.1-1.8-0.6-3.1-1.4-4.1C1459.9,283.3,1458.8,282.9,1457.3,282.9z"/>
			<path class="st10" d="M1479.4,283.5c-0.5-0.1-1.1-0.1-1.7-0.1c-2.3,0-3.8,1-4.6,2.9v14.3h-3.5v-20.2h3.4l0.1,2.3
				c1.1-1.8,2.7-2.7,4.8-2.7c0.7,0,1.2,0.1,1.5,0.3L1479.4,283.5L1479.4,283.5z"/>
			<path class="st10" d="M1494.3,295.2c0-0.9-0.3-1.6-1.1-2.2c-0.7-0.5-1.9-1-3.7-1.3c-1.8-0.4-3.1-0.8-4.2-1.3
				c-1-0.5-1.8-1.1-2.3-1.9c-0.5-0.7-0.7-1.6-0.7-2.6c0-1.6,0.7-3.1,2.1-4.2c1.4-1.1,3.2-1.7,5.4-1.7c2.3,0,4.1,0.6,5.6,1.8
				s2.1,2.7,2.1,4.5h-3.5c0-0.9-0.4-1.8-1.2-2.4c-0.8-0.7-1.8-1-3-1c-1.2,0-2.2,0.3-3,0.8c-0.7,0.6-1.1,1.3-1.1,2.2
				c0,0.8,0.3,1.5,1,1.9c0.7,0.4,1.9,0.8,3.6,1.2c1.7,0.4,3.1,0.9,4.2,1.4c1.1,0.5,1.9,1.2,2.4,1.9c0.5,0.7,0.8,1.7,0.8,2.7
				c0,1.8-0.7,3.2-2.2,4.3c-1.4,1.1-3.3,1.6-5.6,1.6c-1.6,0-3-0.3-4.3-0.9s-2.2-1.4-2.9-2.4c-0.7-1-1.1-2.1-1.1-3.3h3.5
				c0.1,1.2,0.5,2.1,1.4,2.7s2,1,3.4,1c1.3,0,2.4-0.3,3.1-0.8C1493.9,296.8,1494.3,296.1,1494.3,295.2z"/>
		</g>
	</g>
</g>
<g>
	<g>
		<path class="st13" d="M1593.4,1358c0-39-14.6-74.7-38.6-101.8c-28-29.3-67.4-47.5-111.1-47.5c-84.8,0-153.6,68.8-153.6,153.6
			c0,39,14.6,74.7,38.6,101.8c28,29.3,67.4,47.5,111.1,47.5C1524.6,1511.5,1593.4,1442.8,1593.4,1358z"/>
	</g>
	<g>
		<g>
			<g>
				<g>
					<g>
						<path class="st2" d="M1559,1360.1c0,64.8-52.5,117.3-117.3,117.3c-64.8,0-117.3-52.5-117.3-117.3
							c0-64.8,52.5-117.3,117.3-117.3C1506.5,1242.8,1559,1295.3,1559,1360.1z"/>
					</g>
				</g>
			</g>
			<g>
				
					<radialGradient id="SVGID_7_" cx="1345.118" cy="-2676.6763" r="338.8801" gradientTransform="matrix(1 0 0 -1 0 -1426.2681)" gradientUnits="userSpaceOnUse">
					<stop  offset="0" style="stop-color:#F7F7F8"/>
					<stop  offset="0.6406" style="stop-color:#FDFDFE"/>
					<stop  offset="0.7151" style="stop-color:#FFFFFF"/>
				</radialGradient>
				<path class="st14" d="M1559,1360.1c0-29.8-11.1-57-29.4-77.7c-21.4-22.4-51.5-36.3-84.8-36.3c-64.8,0-117.3,52.5-117.3,117.3
					c0,29.8,11.1,57,29.5,77.7c21.4,22.4,51.5,36.3,84.8,36.3C1506.5,1477.4,1559,1424.9,1559,1360.1z"/>
			</g>
			<g>
				<g>
					<path class="st9" d="M1547.2,1308.7c6.5,14.6,10.1,30.7,10.1,47.6c0,64.8-52.5,117.3-117.3,117.3c-38.9,0-73.4-19-94.7-48.1
						c3.5,5.5,7.4,10.8,11.7,15.6c21.4,22.4,51.5,36.3,84.8,36.3c64.8,0,117.3-52.5,117.3-117.3
						C1559,1341.7,1554.8,1324.2,1547.2,1308.7z"/>
				</g>
			</g>
		</g>
		<g>
			<path class="st10" d="M1360.8,1324.5h-11.4v12h-3.6v-27.1h16.8v2.9h-13.2v9.3h11.4L1360.8,1324.5L1360.8,1324.5z"/>
			<path class="st10" d="M1366.4,1310.9c0-0.6,0.2-1,0.5-1.4c0.3-0.4,0.9-0.6,1.5-0.6s1.2,0.2,1.5,0.6c0.3,0.4,0.5,0.9,0.5,1.4
				s-0.2,1-0.5,1.4s-0.9,0.6-1.5,0.6s-1.2-0.2-1.5-0.6C1366.6,1312,1366.4,1311.5,1366.4,1310.9z M1370.1,1336.5h-3.5v-20.2h3.5
				V1336.5z"/>
			<path class="st10" d="M1378.9,1316.3l0.1,2.5c1.5-1.9,3.6-2.9,6-2.9c4.3,0,6.4,2.4,6.5,7.2v13.3h-3.5v-13.3c0-1.5-0.3-2.5-1-3.2
				c-0.7-0.7-1.7-1-3.1-1c-1.1,0-2.1,0.3-3,0.9c-0.9,0.6-1.5,1.4-2,2.3v14.4h-3.5v-20.2L1378.9,1316.3L1378.9,1316.3z"/>
			<path class="st10" d="M1409.2,1336.5c-0.2-0.4-0.4-1.1-0.5-2.1c-1.6,1.7-3.5,2.5-5.7,2.5c-2,0-3.6-0.6-4.9-1.7
				c-1.3-1.1-1.9-2.6-1.9-4.3c0-2.1,0.8-3.7,2.4-4.9s3.8-1.7,6.7-1.7h3.4v-1.6c0-1.2-0.4-2.2-1.1-2.9s-1.8-1.1-3.2-1.1
				c-1.2,0-2.3,0.3-3.1,0.9c-0.8,0.6-1.2,1.4-1.2,2.3h-3.5c0-1,0.4-2,1.1-2.9c0.7-0.9,1.7-1.7,2.9-2.2c1.2-0.5,2.6-0.8,4-0.8
				c2.3,0,4.1,0.6,5.5,1.7c1.3,1.2,2,2.8,2,4.8v9.3c0,1.9,0.2,3.3,0.7,4.4v0.3L1409.2,1336.5L1409.2,1336.5z M1403.4,1333.8
				c1.1,0,2.1-0.3,3.1-0.8c1-0.6,1.7-1.3,2.1-2.2v-4.1h-2.7c-4.2,0-6.3,1.2-6.3,3.7c0,1.1,0.4,1.9,1.1,2.5
				C1401.4,1333.5,1402.3,1333.8,1403.4,1333.8z"/>
			<path class="st10" d="M1420.7,1316.3l0.1,2.5c1.5-1.9,3.6-2.9,6-2.9c4.3,0,6.4,2.4,6.5,7.2v13.3h-3.5v-13.3c0-1.5-0.3-2.5-1-3.2
				c-0.7-0.7-1.7-1-3.1-1c-1.1,0-2.1,0.3-3,0.9c-0.9,0.6-1.5,1.4-2,2.3v14.4h-3.5v-20.2L1420.7,1316.3L1420.7,1316.3z"/>
			<path class="st10" d="M1446.7,1334c1.2,0,2.3-0.4,3.2-1.1c0.9-0.7,1.4-1.7,1.5-2.8h3.3c-0.1,1.2-0.5,2.3-1.2,3.3
				c-0.7,1-1.7,1.9-2.9,2.5c-1.2,0.6-2.5,0.9-3.9,0.9c-2.7,0-4.9-0.9-6.6-2.7c-1.6-1.8-2.4-4.3-2.4-7.5v-0.6c0-2,0.4-3.7,1.1-5.2
				c0.7-1.5,1.8-2.7,3.1-3.6c1.4-0.9,3-1.3,4.8-1.3c2.3,0,4.1,0.7,5.6,2c1.5,1.4,2.3,3.1,2.4,5.3h-3.3c-0.1-1.3-0.6-2.4-1.5-3.2
				c-0.9-0.8-2-1.3-3.3-1.3c-1.8,0-3.1,0.6-4.1,1.9c-1,1.3-1.4,3.1-1.4,5.5v0.7c0,2.3,0.5,4.1,1.4,5.4
				C1443.5,1333.4,1444.9,1334,1446.7,1334z"/>
			<path class="st10" d="M1458.6,1310.9c0-0.6,0.2-1,0.5-1.4c0.3-0.4,0.9-0.6,1.5-0.6s1.2,0.2,1.5,0.6c0.3,0.4,0.5,0.9,0.5,1.4
				s-0.2,1-0.5,1.4s-0.9,0.6-1.5,0.6s-1.2-0.2-1.5-0.6C1458.7,1312,1458.6,1311.5,1458.6,1310.9z M1462.3,1336.5h-3.5v-20.2h3.5
				V1336.5z"/>
			<path class="st10" d="M1471.1,1316.3l0.1,2.5c1.5-1.9,3.6-2.9,6-2.9c4.3,0,6.4,2.4,6.5,7.2v13.3h-3.5v-13.3c0-1.5-0.3-2.5-1-3.2
				c-0.7-0.7-1.7-1-3.1-1c-1.1,0-2.1,0.3-3,0.9c-0.9,0.6-1.5,1.4-2,2.3v14.4h-3.5v-20.2L1471.1,1316.3L1471.1,1316.3z"/>
			<path class="st10" d="M1488.1,1326.2c0-3.1,0.7-5.6,2.2-7.5c1.5-1.9,3.4-2.8,5.8-2.8c2.5,0,4.4,0.9,5.8,2.6l0.2-2.2h3.2v19.7
				c0,2.6-0.8,4.7-2.3,6.2c-1.5,1.5-3.6,2.3-6.2,2.3c-1.5,0-2.9-0.3-4.3-0.9c-1.4-0.6-2.4-1.5-3.2-2.6l1.8-2.1
				c1.5,1.8,3.3,2.7,5.4,2.7c1.7,0,3-0.5,3.9-1.4c0.9-0.9,1.4-2.3,1.4-4v-1.7c-1.4,1.6-3.3,2.4-5.6,2.4c-2.4,0-4.3-1-5.7-2.8
				C1488.8,1332.1,1488.1,1329.5,1488.1,1326.2z M1491.5,1326.6c0,2.3,0.5,4.1,1.4,5.4c0.9,1.3,2.2,1.9,3.9,1.9c2.2,0,3.8-1,4.8-3
				v-9.2c-1.1-1.9-2.6-2.9-4.8-2.9c-1.7,0-3,0.7-3.9,2S1491.5,1324,1491.5,1326.6z"/>
			<path class="st10" d="M1519,1329.2c0-1.3,0.4-2.5,1.1-3.6c0.7-1.1,2.1-2.4,4.2-3.8c-1.2-1.5-2-2.7-2.4-3.5
				c-0.4-0.9-0.6-1.8-0.6-2.7c0-2.1,0.6-3.7,1.8-4.8s2.9-1.8,5-1.8c1.9,0,3.4,0.5,4.6,1.6c1.2,1.1,1.8,2.5,1.8,4.1
				c0,1.1-0.3,2.1-0.8,3c-0.6,0.9-1.5,1.9-2.9,2.9l-2,1.5l6,7.2c0.9-1.6,1.3-3.4,1.3-5.4h3.1c0,3.2-0.8,5.8-2.3,7.9l3.9,4.6h-4.1
				l-1.8-2.2c-0.9,0.8-2,1.4-3.2,1.9c-1.2,0.4-2.5,0.6-3.8,0.6c-2.7,0-4.8-0.7-6.4-2.1C1519.8,1333.3,1519,1331.5,1519,1329.2z
				 M1527.8,1334c1.8,0,3.5-0.7,5-2.1l-6.6-7.9l-0.6,0.5c-2.1,1.5-3.1,3.1-3.1,4.7c0,1.5,0.5,2.6,1.4,3.5
				C1524.9,1333.6,1526.2,1334,1527.8,1334z M1524.7,1315.4c0,1.2,0.7,2.7,2.2,4.5l2.2-1.5c0.9-0.6,1.4-1.2,1.7-1.7
				c0.3-0.5,0.5-1.2,0.5-2c0-0.8-0.3-1.5-0.9-2.1c-0.6-0.6-1.4-0.8-2.3-0.8c-1,0-1.8,0.3-2.4,1
				C1525,1313.5,1524.7,1314.4,1524.7,1315.4z"/>
			<path class="st10" d="M1365.5,1382.3h-3.6v-27.1h3.6V1382.3z"/>
			<path class="st10" d="M1374.8,1362.1l0.1,2.5c1.5-1.9,3.6-2.9,6-2.9c4.3,0,6.4,2.4,6.5,7.2v13.3h-3.5v-13.3c0-1.5-0.3-2.5-1-3.2
				c-0.7-0.7-1.7-1-3.1-1c-1.1,0-2.1,0.3-3,0.9c-0.9,0.6-1.5,1.4-2,2.3v14.4h-3.5v-20.2H1374.8L1374.8,1362.1z"/>
			<path class="st10" d="M1404.4,1376.9c0-0.9-0.3-1.6-1.1-2.2c-0.7-0.5-1.9-1-3.7-1.3c-1.8-0.4-3.1-0.8-4.2-1.3
				c-1-0.5-1.8-1.1-2.3-1.9c-0.5-0.7-0.7-1.6-0.7-2.6c0-1.6,0.7-3.1,2.1-4.2c1.4-1.1,3.2-1.7,5.4-1.7c2.3,0,4.1,0.6,5.6,1.8
				c1.4,1.2,2.1,2.7,2.1,4.5h-3.5c0-0.9-0.4-1.8-1.2-2.4c-0.8-0.7-1.8-1-3-1c-1.2,0-2.2,0.3-3,0.8s-1.1,1.3-1.1,2.2
				c0,0.8,0.3,1.5,1,1.9c0.7,0.4,1.9,0.8,3.6,1.2c1.7,0.4,3.1,0.9,4.2,1.4s1.9,1.2,2.4,1.9c0.5,0.7,0.8,1.7,0.8,2.7
				c0,1.8-0.7,3.2-2.2,4.3s-3.3,1.6-5.6,1.6c-1.6,0-3-0.3-4.3-0.9c-1.2-0.6-2.2-1.4-2.9-2.4c-0.7-1-1.1-2.1-1.1-3.3h3.5
				c0.1,1.2,0.5,2.1,1.4,2.7s2,1,3.4,1c1.3,0,2.4-0.3,3.1-0.8C1404,1378.5,1404.4,1377.8,1404.4,1376.9z"/>
			<path class="st10" d="M1424.8,1380.3c-1.3,1.6-3.3,2.4-5.9,2.4c-2.2,0-3.8-0.6-4.9-1.9c-1.1-1.2-1.7-3.1-1.7-5.6v-13.1h3.5v13
				c0,3.1,1.2,4.6,3.7,4.6c2.6,0,4.4-1,5.3-3v-14.7h3.5v20.2h-3.3L1424.8,1380.3z"/>
			<path class="st10" d="M1443.1,1365.2c-0.5-0.1-1.1-0.1-1.7-0.1c-2.3,0-3.8,1-4.6,2.9v14.3h-3.5v-20.2h3.4l0.1,2.3
				c1.1-1.8,2.7-2.7,4.8-2.7c0.7,0,1.2,0.1,1.5,0.3L1443.1,1365.2L1443.1,1365.2z"/>
			<path class="st10" d="M1458,1382.3c-0.2-0.4-0.4-1.1-0.5-2.1c-1.6,1.7-3.5,2.5-5.7,2.5c-2,0-3.6-0.6-4.9-1.7
				c-1.3-1.1-1.9-2.6-1.9-4.3c0-2.1,0.8-3.7,2.4-4.9s3.8-1.7,6.7-1.7h3.4v-1.6c0-1.2-0.4-2.2-1.1-2.9c-0.7-0.7-1.8-1.1-3.2-1.1
				c-1.2,0-2.3,0.3-3.1,0.9s-1.2,1.4-1.2,2.3h-3.5c0-1,0.4-2,1.1-2.9c0.7-0.9,1.7-1.7,2.9-2.2c1.2-0.6,2.6-0.8,4-0.8
				c2.3,0,4.1,0.6,5.5,1.7s2,2.8,2,4.8v9.3c0,1.9,0.2,3.3,0.7,4.4v0.3L1458,1382.3L1458,1382.3z M1452.3,1379.7
				c1.1,0,2.1-0.3,3.1-0.8c1-0.6,1.7-1.3,2.1-2.2v-4.1h-2.7c-4.2,0-6.3,1.2-6.3,3.7c0,1.1,0.4,1.9,1.1,2.5
				C1450.2,1379.4,1451.1,1379.7,1452.3,1379.7z"/>
			<path class="st10" d="M1469.6,1362.1l0.1,2.5c1.5-1.9,3.6-2.9,6-2.9c4.3,0,6.4,2.4,6.5,7.2v13.3h-3.5v-13.3c0-1.5-0.3-2.5-1-3.2
				c-0.7-0.7-1.7-1-3.1-1c-1.1,0-2.1,0.3-3,0.9c-0.9,0.6-1.5,1.4-2,2.3v14.4h-3.5v-20.2H1469.6L1469.6,1362.1z"/>
			<path class="st10" d="M1495.5,1379.9c1.2,0,2.3-0.4,3.2-1.1c0.9-0.7,1.4-1.7,1.5-2.8h3.3c-0.1,1.2-0.5,2.3-1.2,3.3
				c-0.7,1-1.7,1.9-2.9,2.5c-1.2,0.6-2.5,0.9-3.9,0.9c-2.7,0-4.9-0.9-6.6-2.7c-1.6-1.8-2.4-4.3-2.4-7.5v-0.6c0-2,0.4-3.7,1.1-5.2
				c0.7-1.5,1.8-2.7,3.1-3.6c1.4-0.9,3-1.3,4.8-1.3c2.3,0,4.1,0.7,5.6,2c1.5,1.4,2.3,3.1,2.4,5.3h-3.3c-0.1-1.3-0.6-2.4-1.5-3.2
				s-2-1.2-3.3-1.2c-1.8,0-3.1,0.6-4.1,1.9c-1,1.3-1.4,3.1-1.4,5.5v0.7c0,2.3,0.5,4.1,1.4,5.4
				C1492.3,1379.3,1493.7,1379.9,1495.5,1379.9z"/>
			<path class="st10" d="M1515.7,1382.7c-2.7,0-5-0.9-6.7-2.7c-1.7-1.8-2.6-4.2-2.6-7.2v-0.6c0-2,0.4-3.8,1.1-5.4
				c0.8-1.6,1.8-2.8,3.2-3.7c1.4-0.9,2.9-1.3,4.5-1.3c2.6,0,4.7,0.9,6.1,2.6c1.4,1.7,2.2,4.2,2.2,7.4v1.4h-13.7
				c0.1,2,0.6,3.6,1.7,4.8c1.1,1.2,2.5,1.8,4.2,1.8c1.2,0,2.3-0.2,3.1-0.7c0.8-0.5,1.6-1.2,2.2-2l2.1,1.6
				C1521.7,1381.4,1519.1,1382.7,1515.7,1382.7z M1515.3,1364.6c-1.4,0-2.6,0.5-3.5,1.5c-0.9,1-1.5,2.4-1.8,4.3h10.1v-0.3
				c-0.1-1.8-0.6-3.1-1.4-4.1C1517.9,1365.1,1516.7,1364.6,1515.3,1364.6z"/>
			<path class="st10" d="M1368.3,1417.5v10.6h-3.6V1401h10c3,0,5.3,0.8,7,2.3c1.7,1.5,2.5,3.5,2.5,6c0,2.6-0.8,4.7-2.5,6.1
				c-1.6,1.4-4,2.1-7.1,2.1L1368.3,1417.5L1368.3,1417.5z M1368.3,1414.6h6.4c1.9,0,3.4-0.5,4.4-1.4c1-0.9,1.5-2.2,1.5-3.9
				c0-1.6-0.5-2.9-1.5-3.9c-1-1-2.4-1.5-4.2-1.5h-6.6L1368.3,1414.6L1368.3,1414.6z"/>
			<path class="st10" d="M1398.1,1411c-0.5-0.1-1.1-0.1-1.7-0.1c-2.3,0-3.8,1-4.6,2.9v14.3h-3.5v-20.2h3.4l0.1,2.3
				c1.1-1.8,2.7-2.7,4.8-2.7c0.7,0,1.2,0.1,1.5,0.3L1398.1,1411L1398.1,1411z"/>
			<path class="st10" d="M1400,1417.8c0-2,0.4-3.7,1.2-5.3c0.8-1.6,1.9-2.8,3.2-3.7c1.4-0.9,3-1.3,4.7-1.3c2.7,0,5,1,6.7,2.8
				c1.7,1.9,2.6,4.4,2.6,7.6v0.2c0,2-0.4,3.7-1.1,5.3s-1.8,2.8-3.2,3.6s-3,1.3-4.8,1.3c-2.7,0-4.9-1-6.6-2.8
				c-1.7-1.9-2.6-4.4-2.6-7.6L1400,1417.8L1400,1417.8z M1403.4,1418.3c0,2.2,0.5,4,1.6,5.4c1,1.4,2.4,2,4.2,2
				c1.8,0,3.1-0.7,4.2-2.1c1-1.4,1.5-3.3,1.5-5.8c0-2.2-0.5-4-1.6-5.4c-1.1-1.4-2.4-2.1-4.2-2.1c-1.7,0-3.1,0.7-4.1,2
				C1403.9,1413.8,1403.4,1415.7,1403.4,1418.3z"/>
			<path class="st10" d="M1429,1423.4l5-15.5h3.5l-7.2,20.2h-2.6l-7.3-20.2h3.5L1429,1423.4z"/>
			<path class="st10" d="M1440.9,1402.6c0-0.6,0.2-1,0.5-1.4c0.3-0.4,0.9-0.6,1.5-0.6s1.2,0.2,1.5,0.6c0.3,0.4,0.5,0.9,0.5,1.4
				c0,0.6-0.2,1-0.5,1.4c-0.3,0.4-0.9,0.6-1.5,0.6s-1.2-0.2-1.5-0.6C1441.1,1403.6,1440.9,1403.2,1440.9,1402.6z M1444.6,1428.1
				h-3.5v-20.2h3.5V1428.1z"/>
			<path class="st10" d="M1449.3,1417.9c0-3.1,0.7-5.6,2.2-7.5c1.5-1.9,3.4-2.8,5.8-2.8c2.4,0,4.2,0.8,5.6,2.4v-10.5h3.5v28.6h-3.2
				l-0.2-2.2c-1.4,1.7-3.3,2.5-5.8,2.5c-2.3,0-4.2-1-5.7-2.9c-1.5-1.9-2.2-4.4-2.2-7.5V1417.9z M1452.7,1418.3
				c0,2.3,0.5,4.1,1.4,5.4c0.9,1.3,2.3,1.9,3.9,1.9c2.2,0,3.8-1,4.8-3v-9.3c-1-1.9-2.6-2.8-4.8-2.8c-1.7,0-3,0.7-4,2
				C1453.2,1413.8,1452.7,1415.7,1452.7,1418.3z"/>
			<path class="st10" d="M1480,1428.5c-2.7,0-5-0.9-6.7-2.7s-2.6-4.2-2.6-7.2v-0.6c0-2,0.4-3.8,1.1-5.4c0.8-1.6,1.8-2.8,3.2-3.7
				c1.4-0.9,2.9-1.3,4.5-1.3c2.6,0,4.7,0.9,6.1,2.6c1.5,1.7,2.2,4.2,2.2,7.4v1.4h-13.7c0.1,2,0.6,3.6,1.7,4.8
				c1.1,1.2,2.5,1.8,4.2,1.8c1.2,0,2.3-0.2,3.1-0.7c0.9-0.5,1.6-1.2,2.2-2l2.1,1.6C1486,1427.2,1483.4,1428.5,1480,1428.5z
				 M1479.6,1410.4c-1.4,0-2.6,0.5-3.5,1.5c-0.9,1-1.5,2.4-1.8,4.3h10.1v-0.3c-0.1-1.8-0.6-3.1-1.4-4.1
				C1482.2,1410.9,1481.1,1410.4,1479.6,1410.4z"/>
			<path class="st10" d="M1501.7,1411c-0.5-0.1-1.1-0.1-1.7-0.1c-2.3,0-3.8,1-4.6,2.9v14.3h-3.5v-20.2h3.4l0.1,2.3
				c1.1-1.8,2.7-2.7,4.8-2.7c0.7,0,1.2,0.1,1.5,0.3L1501.7,1411L1501.7,1411z"/>
			<path class="st10" d="M1516.6,1422.8c0-0.9-0.3-1.6-1.1-2.2c-0.7-0.5-1.9-1-3.7-1.3c-1.8-0.4-3.1-0.8-4.2-1.3
				c-1-0.5-1.8-1.1-2.3-1.9c-0.5-0.7-0.7-1.6-0.7-2.6c0-1.6,0.7-3.1,2.1-4.2c1.4-1.1,3.2-1.7,5.4-1.7c2.3,0,4.1,0.6,5.6,1.8
				c1.4,1.2,2.1,2.7,2.1,4.5h-3.5c0-0.9-0.4-1.8-1.2-2.4c-0.8-0.7-1.8-1-3-1c-1.2,0-2.2,0.3-3,0.8c-0.7,0.6-1.1,1.3-1.1,2.2
				c0,0.8,0.3,1.5,1,1.9c0.7,0.4,1.9,0.8,3.6,1.2c1.7,0.4,3.1,0.9,4.2,1.4c1.1,0.5,1.9,1.2,2.4,1.9c0.5,0.7,0.8,1.7,0.8,2.7
				c0,1.8-0.7,3.2-2.2,4.3c-1.4,1.1-3.3,1.6-5.6,1.6c-1.6,0-3-0.3-4.3-0.9c-1.2-0.6-2.2-1.4-2.9-2.4c-0.7-1-1.1-2.1-1.1-3.3h3.5
				c0.1,1.2,0.5,2.1,1.4,2.7s2,1,3.4,1c1.3,0,2.4-0.3,3.1-0.8C1516.2,1424.4,1516.6,1423.7,1516.6,1422.8z"/>
		</g>
	</g>
</g>
<g>
	<g>
		<path class="st5" d="M440.7,798.3c0-39-14.6-74.7-38.6-101.8c-28-29.3-67.4-47.5-111.1-47.5c-84.8,0-153.6,68.8-153.6,153.6
			c0,39,14.6,74.7,38.6,101.8c28,29.3,67.4,47.5,111.1,47.5C371.9,951.9,440.7,883.1,440.7,798.3z"/>
	</g>
	<g>
		<g>
			<g>
				<g>
					<g>
						<path class="st2" d="M406.3,800.4c0,64.8-52.5,117.3-117.3,117.3s-117.3-52.5-117.3-117.3s52.5-117.3,117.3-117.3
							C353.8,683.2,406.3,735.7,406.3,800.4z"/>
					</g>
				</g>
			</g>
			<g>
				
					<radialGradient id="SVGID_8_" cx="192.3949" cy="-2117.0146" r="338.8801" gradientTransform="matrix(1 0 0 -1 0 -1426.2681)" gradientUnits="userSpaceOnUse">
					<stop  offset="0" style="stop-color:#F7F7F8"/>
					<stop  offset="0.6406" style="stop-color:#FDFDFE"/>
					<stop  offset="0.7151" style="stop-color:#FFFFFF"/>
				</radialGradient>
				<path class="st15" d="M406.3,800.4c0-29.8-11.1-57-29.4-77.7c-21.4-22.4-51.5-36.3-84.8-36.3c-64.8,0-117.3,52.5-117.3,117.3
					c0,29.8,11.1,57,29.5,77.7c21.4,22.4,51.5,36.3,84.8,36.3C353.8,917.7,406.3,865.2,406.3,800.4z"/>
			</g>
			<g>
				<g>
					<path class="st9" d="M394.5,749c6.5,14.6,10.1,30.7,10.1,47.6c0,64.8-52.5,117.3-117.3,117.3c-38.9,0-73.4-19-94.7-48.1
						c3.5,5.5,7.4,10.8,11.7,15.6c21.4,22.4,51.5,36.3,84.8,36.3c64.8,0,117.3-52.5,117.3-117.3C406.3,782,402,764.5,394.5,749z"/>
				</g>
			</g>
		</g>
		<g>
			<path class="st10" d="M236.9,799.5h-11.4v12H222v-27.2h16.8v2.9h-13.2v9.3h11.4V799.5z"/>
			<path class="st10" d="M254.3,811.5c-0.2-0.4-0.4-1.1-0.5-2.1c-1.6,1.7-3.5,2.5-5.7,2.5c-2,0-3.6-0.6-4.9-1.7
				c-1.3-1.1-1.9-2.6-1.9-4.3c0-2.1,0.8-3.7,2.4-4.9s3.8-1.7,6.7-1.7h3.4v-1.6c0-1.2-0.4-2.2-1.1-2.9c-0.7-0.7-1.8-1.1-3.2-1.1
				c-1.2,0-2.3,0.3-3.1,0.9c-0.8,0.6-1.2,1.4-1.2,2.3h-3.5c0-1,0.4-2,1.1-2.9c0.7-0.9,1.7-1.7,2.9-2.2c1.2-0.5,2.6-0.8,4-0.8
				c2.3,0,4.1,0.6,5.5,1.7c1.3,1.2,2,2.8,2,4.8v9.3c0,1.9,0.2,3.3,0.7,4.4v0.3L254.3,811.5L254.3,811.5z M248.6,808.9
				c1.1,0,2.1-0.3,3.1-0.8c1-0.6,1.7-1.3,2.1-2.2v-4.1h-2.7c-4.2,0-6.3,1.2-6.3,3.7c0,1.1,0.4,1.9,1.1,2.5
				C246.6,808.6,247.5,808.9,248.6,808.9z"/>
			<path class="st10" d="M272.4,794.4c-0.5-0.1-1.1-0.1-1.7-0.1c-2.3,0-3.8,1-4.6,2.9v14.3h-3.5v-20.2h3.4l0.1,2.3
				c1.1-1.8,2.7-2.7,4.8-2.7c0.7,0,1.2,0.1,1.5,0.3L272.4,794.4L272.4,794.4z"/>
			<path class="st10" d="M278.8,791.3l0.1,2.2c1.5-1.7,3.5-2.6,6-2.6c2.8,0,4.7,1.1,5.8,3.2c0.7-1,1.5-1.8,2.6-2.3
				c1.1-0.6,2.3-0.9,3.8-0.9c4.4,0,6.7,2.3,6.8,7v13.5h-3.5v-13.3c0-1.4-0.3-2.5-1-3.2c-0.7-0.7-1.8-1.1-3.3-1.1
				c-1.3,0-2.3,0.4-3.2,1.1c-0.9,0.8-1.3,1.8-1.5,3.1v13.4H288v-13.2c0-2.9-1.4-4.4-4.3-4.4c-2.3,0-3.8,1-4.6,2.9v14.7h-3.5v-20.2
				H278.8z"/>
			<path class="st10" d="M317.4,811.9c-2.7,0-5-0.9-6.7-2.7c-1.7-1.8-2.6-4.2-2.6-7.2v-0.6c0-2,0.4-3.8,1.1-5.4
				c0.8-1.6,1.8-2.8,3.2-3.7c1.4-0.9,2.9-1.3,4.5-1.3c2.6,0,4.7,0.9,6.1,2.6c1.5,1.7,2.2,4.2,2.2,7.4v1.4h-13.7
				c0.1,2,0.6,3.6,1.7,4.8c1.1,1.2,2.5,1.8,4.2,1.8c1.2,0,2.3-0.2,3.1-0.7c0.9-0.5,1.6-1.2,2.2-2l2.1,1.6
				C323.3,810.6,320.8,811.9,317.4,811.9z M317,793.8c-1.4,0-2.6,0.5-3.5,1.5c-0.9,1-1.5,2.4-1.8,4.3h10.1v-0.3
				c-0.1-1.8-0.6-3.1-1.4-4.1C319.6,794.3,318.4,793.8,317,793.8z"/>
			<path class="st10" d="M339,794.4c-0.5-0.1-1.1-0.1-1.7-0.1c-2.3,0-3.8,1-4.6,2.9v14.3h-3.5v-20.2h3.4l0.1,2.3
				c1.1-1.8,2.7-2.7,4.8-2.7c0.7,0,1.2,0.1,1.5,0.3L339,794.4L339,794.4z"/>
			<path class="st10" d="M353.9,806.2c0-0.9-0.3-1.6-1.1-2.2c-0.7-0.5-1.9-1-3.7-1.3c-1.8-0.4-3.1-0.8-4.2-1.3
				c-1-0.5-1.8-1.1-2.3-1.9c-0.5-0.7-0.7-1.6-0.7-2.6c0-1.6,0.7-3.1,2.1-4.2c1.4-1.1,3.2-1.7,5.4-1.7c2.3,0,4.1,0.6,5.6,1.8
				s2.1,2.7,2.1,4.5h-3.5c0-0.9-0.4-1.8-1.2-2.4c-0.8-0.7-1.8-1-3-1c-1.2,0-2.2,0.3-3,0.8c-0.7,0.6-1.1,1.3-1.1,2.2
				c0,0.8,0.3,1.5,1,1.9c0.7,0.4,1.9,0.8,3.6,1.2c1.7,0.4,3.1,0.9,4.2,1.4c1.1,0.5,1.9,1.2,2.4,1.9c0.5,0.7,0.8,1.7,0.8,2.7
				c0,1.8-0.7,3.2-2.2,4.3c-1.4,1.1-3.3,1.6-5.6,1.6c-1.6,0-3-0.3-4.3-0.9c-1.2-0.6-2.2-1.4-2.9-2.4c-0.7-1-1.1-2.1-1.1-3.3h3.5
				c0.1,1.2,0.5,2.1,1.4,2.7c0.9,0.7,2,1,3.4,1c1.3,0,2.4-0.3,3.1-0.8C353.6,807.8,353.9,807.1,353.9,806.2z"/>
		</g>
	</g>
</g>
<g>
	<g>
		<path class="st16" d="M933.9,802.1c0-39-14.6-74.7-38.6-101.8c-28-29.3-67.4-47.5-111.1-47.5c-84.8,0-153.6,68.8-153.6,153.6
			c0,39,14.6,74.7,38.6,101.8c28,29.3,67.4,47.5,111.1,47.5C865.1,955.7,933.9,886.9,933.9,802.1z"/>
	</g>
	<g>
		<g>
			<g>
				<g>
					<g>
						<path class="st2" d="M899.5,804.2c0,64.8-52.5,117.3-117.3,117.3S665,869,665,804.2S717.5,687,782.3,687
							C847,687,899.5,739.5,899.5,804.2z"/>
					</g>
				</g>
			</g>
			<g>
				
					<radialGradient id="SVGID_9_" cx="685.5988" cy="-2120.8064" r="338.8801" gradientTransform="matrix(1 0 0 -1 0 -1426.2681)" gradientUnits="userSpaceOnUse">
					<stop  offset="0" style="stop-color:#F7F7F8"/>
					<stop  offset="0.6406" style="stop-color:#FDFDFE"/>
					<stop  offset="0.7151" style="stop-color:#FFFFFF"/>
				</radialGradient>
				<path class="st17" d="M899.5,804.2c0-29.8-11.1-57-29.4-77.7c-21.4-22.4-51.5-36.3-84.8-36.3c-64.8,0-117.3,52.5-117.3,117.3
					c0,29.8,11.1,57,29.5,77.7c21.4,22.4,51.5,36.3,84.8,36.3C847,921.5,899.5,869,899.5,804.2z"/>
			</g>
			<g>
				<g>
					<path class="st9" d="M887.7,752.8c6.5,14.6,10.1,30.7,10.1,47.6c0,64.8-52.5,117.3-117.3,117.3c-38.9,0-73.4-19-94.7-48.1
						c3.5,5.5,7.4,10.8,11.7,15.6c21.4,22.4,51.5,36.3,84.8,36.3c64.8,0,117.3-52.5,117.3-117.3
						C899.5,785.8,895.3,768.3,887.7,752.8z"/>
				</g>
			</g>
		</g>
		<g>
			<path class="st10" d="M722.1,792.8v-27.1h7.7c2.4,0,4.4,0.5,6.3,1.6s3.2,2.5,4.2,4.5s1.5,4.1,1.5,6.6v1.7c0,2.6-0.5,4.8-1.5,6.7
				c-1,1.9-2.4,3.4-4.2,4.4c-1.8,1-4,1.6-6.4,1.6H722.1z M725.7,768.5v21.3h3.8c2.8,0,4.9-0.9,6.4-2.6c1.5-1.7,2.3-4.2,2.3-7.3v-1.6
				c0-3.1-0.7-5.5-2.2-7.2c-1.4-1.7-3.5-2.6-6.2-2.6L725.7,768.5L725.7,768.5z"/>
			<path class="st10" d="M755,793.1c-2.7,0-5-0.9-6.7-2.7c-1.7-1.8-2.6-4.2-2.6-7.2v-0.6c0-2,0.4-3.8,1.1-5.4
				c0.8-1.6,1.8-2.8,3.2-3.7c1.4-0.9,2.9-1.3,4.5-1.3c2.6,0,4.7,0.9,6.1,2.6c1.5,1.7,2.2,4.2,2.2,7.4v1.4h-13.7
				c0.1,2,0.6,3.6,1.7,4.8c1.1,1.2,2.5,1.8,4.2,1.8c1.2,0,2.3-0.2,3.1-0.7c0.9-0.5,1.6-1.2,2.2-2l2.1,1.6
				C760.9,791.8,758.4,793.1,755,793.1z M754.6,775c-1.4,0-2.6,0.5-3.5,1.5c-0.9,1-1.5,2.4-1.8,4.3h10.1v-0.3
				c-0.1-1.8-0.6-3.1-1.4-4.1C757.1,775.5,756,775,754.6,775z"/>
			<path class="st10" d="M788.3,792.8h-3.6v-12.6H771v12.6h-3.6v-27.1h3.6v11.7h13.7v-11.7h3.6V792.8z"/>
			<path class="st10" d="M806.6,792.8c-0.2-0.4-0.4-1.1-0.5-2.1c-1.6,1.7-3.5,2.5-5.7,2.5c-2,0-3.6-0.6-4.9-1.7
				c-1.3-1.1-1.9-2.6-1.9-4.3c0-2.1,0.8-3.7,2.4-4.9c1.6-1.2,3.8-1.7,6.7-1.7h3.4V779c0-1.2-0.4-2.2-1.1-2.9
				c-0.7-0.7-1.8-1.1-3.2-1.1c-1.2,0-2.3,0.3-3.1,0.9s-1.2,1.4-1.2,2.3h-3.5c0-1,0.4-2,1.1-2.9c0.7-0.9,1.7-1.7,2.9-2.2
				c1.2-0.5,2.6-0.8,4-0.8c2.3,0,4.1,0.6,5.5,1.7c1.3,1.2,2,2.8,2,4.8v9.3c0,1.9,0.2,3.3,0.7,4.4v0.3L806.6,792.8L806.6,792.8z
				 M800.8,790.1c1.1,0,2.1-0.3,3.1-0.8c1-0.6,1.7-1.3,2.1-2.2V783h-2.7c-4.2,0-6.3,1.2-6.3,3.7c0,1.1,0.4,1.9,1.1,2.5
				C798.8,789.8,799.7,790.1,800.8,790.1z"/>
			<path class="st10" d="M827.3,792.8c-0.2-0.4-0.4-1.1-0.5-2.1c-1.6,1.7-3.5,2.5-5.7,2.5c-2,0-3.6-0.6-4.9-1.7
				c-1.3-1.1-1.9-2.6-1.9-4.3c0-2.1,0.8-3.7,2.4-4.9c1.6-1.2,3.8-1.7,6.7-1.7h3.4V779c0-1.2-0.4-2.2-1.1-2.9
				c-0.7-0.7-1.8-1.1-3.2-1.1c-1.2,0-2.3,0.3-3.1,0.9c-0.8,0.6-1.2,1.4-1.2,2.3h-3.5c0-1,0.4-2,1.1-2.9c0.7-0.9,1.7-1.7,2.9-2.2
				c1.2-0.5,2.6-0.8,4-0.8c2.3,0,4.1,0.6,5.5,1.7c1.3,1.2,2,2.8,2,4.8v9.3c0,1.9,0.2,3.3,0.7,4.4v0.3L827.3,792.8L827.3,792.8z
				 M821.6,790.1c1.1,0,2.1-0.3,3.1-0.8c1-0.6,1.7-1.3,2.1-2.2V783h-2.7c-4.2,0-6.3,1.2-6.3,3.7c0,1.1,0.4,1.9,1.1,2.5
				C819.6,789.8,820.5,790.1,821.6,790.1z"/>
			<path class="st10" d="M840.3,767.7v4.9h3.8v2.7h-3.8v12.5c0,0.8,0.2,1.4,0.5,1.8c0.3,0.4,0.9,0.6,1.7,0.6c0.4,0,0.9-0.1,1.6-0.2
				v2.8c-0.9,0.2-1.8,0.4-2.7,0.4c-1.5,0-2.7-0.5-3.5-1.4s-1.2-2.3-1.2-4v-12.5h-3.7v-2.7h3.7v-4.9L840.3,767.7L840.3,767.7z"/>
			<path class="st10" d="M739.6,830c-0.3,2.9-1.4,5.1-3.2,6.6c-1.8,1.6-4.1,2.3-7.1,2.3c-3.2,0-5.8-1.1-7.7-3.5
				c-1.9-2.3-2.9-5.4-2.9-9.2v-2.6c0-2.5,0.5-4.7,1.4-6.6c0.9-1.9,2.2-3.4,3.8-4.4c1.6-1,3.6-1.5,5.7-1.5c2.9,0,5.2,0.8,6.9,2.4
				c1.7,1.6,2.8,3.8,3,6.7h-3.6c-0.3-2.2-1-3.7-2-4.7c-1-1-2.5-1.5-4.4-1.5c-2.3,0-4.1,0.9-5.4,2.5c-1.3,1.7-1.9,4.1-1.9,7.2v2.6
				c0,3,0.6,5.3,1.8,7c1.2,1.7,3,2.6,5.2,2.6c2,0,3.5-0.5,4.6-1.4c1.1-0.9,1.8-2.5,2.1-4.7L739.6,830L739.6,830z"/>
			<path class="st10" d="M752.3,838.9c-2.7,0-5-0.9-6.7-2.7c-1.7-1.8-2.6-4.2-2.6-7.2v-0.6c0-2,0.4-3.8,1.1-5.4
				c0.8-1.6,1.8-2.8,3.2-3.7c1.4-0.9,2.9-1.3,4.5-1.3c2.6,0,4.7,0.9,6.1,2.6c1.4,1.7,2.2,4.2,2.2,7.4v1.4h-13.7
				c0.1,2,0.6,3.6,1.7,4.8c1.1,1.2,2.5,1.8,4.2,1.8c1.2,0,2.3-0.2,3.1-0.7s1.6-1.2,2.2-2l2.1,1.6
				C758.3,837.6,755.7,838.9,752.3,838.9z M751.9,820.9c-1.4,0-2.6,0.5-3.5,1.5c-0.9,1-1.5,2.4-1.8,4.3h10.1v-0.3
				c-0.1-1.8-0.6-3.1-1.4-4.1C754.5,821.3,753.4,820.9,751.9,820.9z"/>
			<path class="st10" d="M767.5,818.4l0.1,2.5c1.5-1.9,3.6-2.9,6-2.9c4.3,0,6.4,2.4,6.5,7.2v13.3h-3.5v-13.3c0-1.5-0.3-2.5-1-3.2
				c-0.7-0.7-1.7-1-3.1-1c-1.1,0-2.1,0.3-3,0.9c-0.9,0.6-1.5,1.4-2,2.3v14.4h-3.5v-20.2L767.5,818.4L767.5,818.4z"/>
			<path class="st10" d="M790,813.5v4.9h3.8v2.7H790v12.5c0,0.8,0.2,1.4,0.5,1.8c0.3,0.4,0.9,0.6,1.7,0.6c0.4,0,0.9-0.1,1.6-0.2v2.8
				c-0.9,0.2-1.8,0.4-2.7,0.4c-1.5,0-2.7-0.5-3.5-1.4s-1.2-2.3-1.2-4v-12.5h-3.7v-2.7h3.7v-4.9L790,813.5L790,813.5z"/>
			<path class="st10" d="M806.1,838.9c-2.7,0-5-0.9-6.7-2.7c-1.7-1.8-2.6-4.2-2.6-7.2v-0.6c0-2,0.4-3.8,1.1-5.4
				c0.8-1.6,1.8-2.8,3.2-3.7c1.4-0.9,2.9-1.3,4.5-1.3c2.6,0,4.7,0.9,6.1,2.6c1.4,1.7,2.2,4.2,2.2,7.4v1.4h-13.7
				c0.1,2,0.6,3.6,1.7,4.8s2.5,1.8,4.2,1.8c1.2,0,2.3-0.2,3.1-0.7s1.6-1.2,2.2-2l2.1,1.6C812,837.6,809.5,838.9,806.1,838.9z
				 M805.7,820.9c-1.4,0-2.6,0.5-3.5,1.5c-0.9,1-1.5,2.4-1.8,4.3h10.1v-0.3c-0.1-1.8-0.6-3.1-1.4-4.1
				C808.3,821.3,807.1,820.9,805.7,820.9z"/>
			<path class="st10" d="M827.7,821.5c-0.5-0.1-1.1-0.1-1.7-0.1c-2.3,0-3.8,1-4.6,2.9v14.3H818v-20.2h3.4l0.1,2.3
				c1.1-1.8,2.7-2.7,4.8-2.7c0.7,0,1.2,0.1,1.5,0.3L827.7,821.5L827.7,821.5z"/>
			<path class="st10" d="M842.7,833.2c0-0.9-0.3-1.6-1.1-2.2c-0.7-0.5-1.9-1-3.7-1.3c-1.8-0.4-3.1-0.8-4.2-1.3
				c-1-0.5-1.8-1.1-2.3-1.9c-0.5-0.7-0.7-1.6-0.7-2.6c0-1.6,0.7-3.1,2.1-4.2c1.4-1.1,3.2-1.7,5.4-1.7c2.3,0,4.1,0.6,5.6,1.8
				s2.1,2.7,2.1,4.5h-3.5c0-0.9-0.4-1.8-1.2-2.4c-0.8-0.7-1.8-1-3-1c-1.2,0-2.2,0.3-3,0.8c-0.7,0.5-1.1,1.3-1.1,2.2
				c0,0.8,0.3,1.5,1,1.9c0.7,0.4,1.9,0.8,3.6,1.2c1.7,0.4,3.1,0.9,4.2,1.4c1.1,0.5,1.9,1.2,2.4,1.9s0.8,1.7,0.8,2.7
				c0,1.8-0.7,3.2-2.2,4.3c-1.4,1.1-3.3,1.6-5.6,1.6c-1.6,0-3-0.3-4.3-0.9c-1.2-0.6-2.2-1.4-2.9-2.4c-0.7-1-1.1-2.1-1.1-3.3h3.5
				c0.1,1.2,0.5,2.1,1.4,2.7s2,1,3.4,1c1.3,0,2.4-0.3,3.1-0.8C842.3,834.8,842.7,834.1,842.7,833.2z"/>
		</g>
	</g>
</g>
<g id="Layer_2_1_">
</g>
<g id="Layer_2_2_">
</g>
<g>
	<g>
		<g>
			<line class="st18" x1="489.1" y1="813.2" x2="565.4" y2="813.2"/>
			<g>
				<polygon class="st19" points="579.6,813.2 559.7,821.4 564.4,813.2 559.7,805.1 				"/>
			</g>
		</g>
	</g>
	<g>
		<g>
			<line class="st18" x1="503.2" y1="782" x2="579.6" y2="782"/>
			<g>
				<polygon class="st19" points="489.1,782 509,790.1 504.3,782 509,773.9 				"/>
			</g>
		</g>
	</g>
</g>
<g>
	<g>
		<g>
			<line class="st18" x1="1000.3" y1="813.2" x2="1076.6" y2="813.2"/>
			<g>
				<polygon class="st19" points="1090.7,813.2 1070.8,821.4 1075.6,813.2 1070.8,805.1 				"/>
			</g>
		</g>
	</g>
	<g>
		<g>
			<line class="st18" x1="1014.4" y1="782" x2="1090.7" y2="782"/>
			<g>
				<polygon class="st19" points="1000.3,782 1020.2,790.1 1015.5,782 1020.2,773.9 				"/>
			</g>
		</g>
	</g>
</g>
<g>
	<g>
		<line class="st18" x1="1746.1" y1="782" x2="1822.4" y2="782"/>
		<g>
			<polygon class="st19" points="1732,782 1751.9,790.1 1747.2,782 1751.9,773.9 			"/>
		</g>
	</g>
</g>
<g>
	<g>
		<line class="st18" x1="1443.4" y1="1190.5" x2="1443.4" y2="1114.2"/>
		<g>
			<polygon class="st19" points="1443.4,1100.1 1451.5,1120 1443.4,1115.3 1435.3,1120 			"/>
		</g>
	</g>
</g>
<g>
	<g>
		<line class="st18" x1="1443.4" y1="457.3" x2="1443.4" y2="533.7"/>
		<g>
			<polygon class="st19" points="1443.4,443.2 1435.3,463.1 1443.4,458.4 1451.5,463.1 			"/>
		</g>
	</g>
</g>
</svg>
