<?xml version="1.0" encoding="utf-8"?>
<!-- Generator: Adobe Illustrator 24.0.1, SVG Export Plug-In . SVG Version: 6.00 Build 0)  -->
<svg version="1.1" id="Layer_1" xmlns="http://www.w3.org/2000/svg" xmlns:xlink="http://www.w3.org/1999/xlink" x="0px" y="0px"
	 viewBox="0 0 2324.5 1603.9" style="enable-background:new 0 0 2324.5 1603.9;" xml:space="preserve">
<style type="text/css">
	.st0{fill:url(#SVGID_1_);}
	.st1{fill:url(#SVGID_2_);}
	.st2{fill:#FFFFFF;}
	.st3{fill:url(#SVGID_3_);}
	.st4{fill:#EEEEEF;}
	.st5{fill:#27B570;}
	.st6{fill:#0E8E4B;}
	.st7{fill:#F4C02F;}
	.st8{fill:url(#SVGID_4_);}
	.st9{fill:#D8D9DD;}
	.st10{fill:url(#SVGID_5_);}
	.st11{fill:url(#SVGID_6_);}
	.st12{fill:#2D2D2D;}
	.st13{fill:#58C3F0;}
	.st14{fill:url(#SVGID_7_);}
	.st15{fill:url(#SVGID_8_);}
	.st16{fill:#D3DF34;}
	.st17{fill:url(#SVGID_9_);}
	.st18{fill:none;stroke:#515151;stroke-width:2;stroke-miterlimit:10;}
	.st19{fill:#515151;}
	.st20{font-family:'MyriadPro-Regular';}
	.st21{font-size:51.6447px;}
</style>
<g>
	<g>
		<g>
			
				<radialGradient id="SVGID_1_" cx="902.2317" cy="2788.8306" r="901.9023" gradientTransform="matrix(1 0 0 1 0 -2268.1582)" gradientUnits="userSpaceOnUse">
				<stop  offset="3.760000e-02" style="stop-color:#D8D9DD"/>
				<stop  offset="0.5538" style="stop-color:#EEEEEF"/>
				<stop  offset="1" style="stop-color:#F7F7F8"/>
			</radialGradient>
			<path class="st0" d="M1471.6,812.6c0-79.3-29.6-151.7-78.4-206.8c-56.8-59.5-136.9-96.6-225.8-96.6c-172.4,0-312,139.7-312,312
				c0,79.3,29.6,151.7,78.4,206.8c56.8,59.5,136.9,96.6,225.8,96.6C1331.9,1124.7,1471.6,985,1471.6,812.6z"/>
		</g>
		<g>
			
				<radialGradient id="SVGID_2_" cx="1158.6873" cy="3058.8105" r="373.7955" gradientTransform="matrix(1 0 0 1 0 -2268.1582)" gradientUnits="userSpaceOnUse">
				<stop  offset="0" style="stop-color:#838383"/>
				<stop  offset="0.3118" style="stop-color:#848585;stop-opacity:0.6882"/>
				<stop  offset="0.4856" style="stop-color:#8B8A8B;stop-opacity:0.5144"/>
				<stop  offset="0.6256" style="stop-color:#959595;stop-opacity:0.3744"/>
				<stop  offset="0.7474" style="stop-color:#A6A5A5;stop-opacity:0.2526"/>
				<stop  offset="0.8574" style="stop-color:#BDBBBC;stop-opacity:0.1426"/>
				<stop  offset="0.9576" style="stop-color:#DBDBDC;stop-opacity:4.240000e-02"/>
				<stop  offset="1" style="stop-color:#EEEEEF;stop-opacity:0"/>
			</radialGradient>
			<path class="st1" d="M988,978.1l145.5,145.5c8.6,0.7,17.3,1,26,1c172.4,0,312-139.7,312-312c0-4.9-0.1-9.9-0.3-14.8l-105.9-105.9
				L988,978.1z"/>
			<g>
				<g>
					<g>
						<path class="st2" d="M1398.7,813.6c0,131.6-106.7,238.3-238.3,238.3S922.1,945.2,922.1,813.6s106.7-238.3,238.3-238.3
							C1292.1,575.3,1398.7,682.1,1398.7,813.6z"/>
					</g>
				</g>
			</g>
			<g>
				
					<radialGradient id="SVGID_3_" cx="962.4601" cy="2856.9661" r="688.6939" gradientTransform="matrix(1 0 0 1 0 -2268.1582)" gradientUnits="userSpaceOnUse">
					<stop  offset="0" style="stop-color:#F7F7F8"/>
					<stop  offset="0.6406" style="stop-color:#FDFDFE"/>
					<stop  offset="0.7151" style="stop-color:#FFFFFF"/>
				</radialGradient>
				<path class="st3" d="M1397.2,811.7c0-60.6-22.7-115.9-59.8-158C1294,608.3,1232.9,580,1165,580
					c-131.6,0-238.3,106.7-238.3,238.3c0,60.6,22.7,115.9,59.8,158c43.4,45.4,104.5,73.8,172.4,73.8
					C1290.5,1050,1397.2,943.3,1397.2,811.7z"/>
			</g>
			<g>
				<g>
					<path class="st4" d="M1374.6,709.1c13.2,29.6,20.5,62.3,20.5,96.9c0,131.6-106.7,238.3-238.3,238.3
						c-79.1,0-149.1-38.5-192.5-97.9c7,11.2,15,21.9,23.7,31.8c43.4,45.4,104.5,73.8,172.4,73.8c131.6,0,238.3-106.7,238.3-238.3
						C1398.7,776.2,1390.1,740.7,1374.6,709.1z"/>
				</g>
			</g>
		</g>
	</g>
	<path class="st5" d="M1163.4,432c102.8,0,199.5,40.1,272.1,112.7c72.6,72.6,112.7,169.3,112.7,272.1s-40.1,199.5-112.7,272.1
		c-72.7,72.7-169.3,112.7-272.1,112.7s-199.5-40.1-272.1-112.7S778.6,919.6,778.6,816.8s40.1-199.5,112.7-272.1
		C963.9,472.1,1060.6,432,1163.4,432 M1163.4,455.1c-199.8,0-361.9,162-361.9,361.9s162,361.9,361.9,361.9s361.9-162,361.9-361.9
		C1525.3,617.2,1363.2,455.1,1163.4,455.1L1163.4,455.1z"/>
</g>
<g>
	<path class="st6" d="M986,789.1v-72.6h21.5c6.4,0,12.1,1.5,17,4.2c4.9,2.9,8.9,7,11.5,12.2c2.8,5.2,4.1,11.3,4.1,18v3.6
		c0,6.8-1.3,12.9-4.1,18.2s-6.7,9.3-11.8,12.1c-5.1,2.8-10.9,4.2-17.4,4.2L986,789.1L986,789.1z M998.6,726.7v52.3h8.3
		c6.7,0,11.6-2,15.2-6.2c3.6-4.2,5.4-10,5.4-17.9v-4.1c0-7.8-1.7-13.9-5.1-18c-3.5-4.2-8.4-6.2-15-6.2L998.6,726.7L998.6,726.7z"/>
	<path class="st6" d="M1075.2,790.1c-7.7,0-13.9-2.5-18.7-7.3s-7.1-11.3-7.1-19.3v-1.5c0-5.4,1-10.2,3-14.4c2-4.2,4.9-7.6,8.7-9.9
		c3.8-2.3,8-3.5,12.5-3.5c7.4,0,13.1,2.3,17,7c4.1,4.6,6,11.3,6,19.9v4.9h-35.3c0.4,4.5,1.9,8,4.5,10.6c2.6,2.6,6,3.9,9.9,3.9
		c5.5,0,10-2.2,13.5-6.7l6.5,6.2c-2.2,3.2-5.1,5.7-8.6,7.6C1083.7,789.2,1079.7,790.1,1075.2,790.1z M1073.7,743.9
		c-3.3,0-6,1.2-8,3.5c-2,2.3-3.3,5.5-3.9,9.7h23.1v-0.9c-0.3-4.1-1.3-7.1-3.2-9.1C1079.7,744.9,1077,743.9,1073.7,743.9z"/>
	<path class="st6" d="M1164.9,789.1h-12.5v-32.2H1120v32.2h-12.6v-72.6h12.6v30.2h32.4v-30.2h12.5V789.1z"/>
	<path class="st6" d="M1210.9,789.1c-0.6-1-1-2.8-1.5-5.1c-3.9,4.1-8.6,6.1-14.1,6.1c-5.4,0-9.9-1.6-13.2-4.6c-3.3-3-5.1-7-5.1-11.5
		c0-5.8,2.2-10.2,6.4-13.2c4.2-3,10.3-4.6,18.3-4.6h7.4v-3.5c0-2.8-0.7-5.1-2.3-6.7c-1.6-1.7-3.9-2.5-7.1-2.5c-2.8,0-5.1,0.7-6.8,2
		c-1.7,1.3-2.6,3.2-2.6,5.2h-12.1c0-2.9,1-5.7,2.9-8.3c1.9-2.6,4.6-4.6,8-6.1c3.3-1.5,7.1-2.2,11.3-2.2c6.2,0,11.3,1.6,15.1,4.8
		s5.7,7.7,5.8,13.4v24.2c0,4.8,0.7,8.7,2,11.6v0.9L1210.9,789.1L1210.9,789.1z M1197.6,780.4c2.3,0,4.6-0.6,6.7-1.7s3.6-2.8,4.8-4.6
		v-10.2h-6.5c-4.5,0-7.8,0.7-10.2,2.3c-2.3,1.6-3.3,3.8-3.3,6.7c0,2.3,0.7,4.2,2.3,5.5C1192.9,779.7,1195,780.4,1197.6,780.4z"/>
	<path class="st6" d="M1266.1,789.1c-0.6-1-1-2.8-1.5-5.1c-3.9,4.1-8.6,6.1-14.1,6.1c-5.4,0-9.9-1.6-13.2-4.6c-3.5-3-5.1-7-5.1-11.5
		c0-5.8,2.2-10.2,6.4-13.2s10.3-4.6,18.3-4.6h7.4v-3.5c0-2.8-0.7-5.1-2.3-6.7c-1.6-1.6-3.9-2.5-7.1-2.5c-2.8,0-5.1,0.7-6.8,2
		c-1.7,1.5-2.6,3.2-2.6,5.2h-12.1c0-2.9,1-5.7,2.9-8.3c1.9-2.6,4.6-4.6,8-6.1c3.3-1.5,7.1-2.2,11.3-2.2c6.2,0,11.3,1.6,15.1,4.8
		s5.7,7.7,5.8,13.4v24.2c0,4.8,0.7,8.7,2,11.6v0.9L1266.1,789.1L1266.1,789.1z M1252.7,780.4c2.3,0,4.6-0.6,6.7-1.7
		c2-1.2,3.6-2.8,4.8-4.6v-10.2h-6.5c-4.5,0-7.8,0.7-10.2,2.3c-2.3,1.6-3.3,3.8-3.3,6.7c0,2.3,0.7,4.2,2.3,5.5
		C1248.1,779.7,1250.1,780.4,1252.7,780.4z"/>
	<path class="st6" d="M1304.3,722v13.1h9.4v9h-9.4v30.2c0,2,0.4,3.5,1.2,4.5c0.9,0.9,2.3,1.3,4.4,1.3c1.5,0,2.8-0.1,4.2-0.4v9.3
		c-2.8,0.7-5.4,1.2-8,1.2c-9.3,0-13.9-5.1-13.9-15.4v-30.5h-8.9v-9h8.9v-13.1L1304.3,722L1304.3,722z"/>
	<path class="st6" d="M1103.9,911.5h-12.6l-32.4-51.4v51.4h-12.6v-72.6h12.6l32.4,51.7v-51.7h12.5v72.6H1103.9z"/>
	<path class="st6" d="M1115.4,884.1c0-5.2,1-10,3.2-14.2c2-4.2,5.1-7.6,8.9-9.7c3.8-2.3,8.1-3.3,13.1-3.3c7.3,0,13.2,2.3,17.7,7
		s7,10.9,7.4,18.6v2.9c0,5.4-1,10-3,14.2c-2,4.2-4.9,7.4-8.7,9.7c-3.8,2.3-8.1,3.5-13.2,3.5c-7.6,0-13.6-2.5-18.3-7.6
		c-4.5-5.1-6.8-11.8-6.8-20.2v-0.9H1115.4z M1127.4,885.1c0,5.5,1.2,9.9,3.5,13.1c2.3,3.2,5.5,4.6,9.6,4.6c4.1,0,7.3-1.6,9.6-4.8
		s3.3-7.8,3.3-13.9c0-5.5-1.2-9.7-3.5-12.9s-5.5-4.8-9.6-4.8c-3.9,0-7.1,1.6-9.4,4.6C1128.6,874.2,1127.4,878.8,1127.4,885.1z"/>
	<path class="st6" d="M1173.5,884.1c0-8.3,1.9-15,5.8-20c3.9-5.1,9-7.6,15.5-7.6c5.7,0,10.3,2,13.8,6v-27.6h12.1v76.5h-10.9
		l-0.6-5.5c-3.6,4.4-8.4,6.5-14.5,6.5c-6.2,0-11.5-2.5-15.4-7.6C1175.4,899.7,1173.5,892.9,1173.5,884.1z M1185.5,885.2
		c0,5.5,1,9.7,3.2,12.8c2,3,5.1,4.6,9,4.6c4.9,0,8.6-2.2,10.9-6.7V873c-2.2-4.4-5.8-6.5-10.7-6.5c-3.9,0-7,1.6-9,4.6
		C1186.5,874.3,1185.5,879,1185.5,885.2z"/>
	<path class="st6" d="M1257,912.5c-7.7,0-13.9-2.5-18.7-7.3c-4.8-4.8-7.1-11.3-7.1-19.3v-1.5c0-5.4,1-10.2,3-14.4
		c2-4.2,4.9-7.6,8.7-9.9c3.8-2.3,8-3.5,12.5-3.5c7.4,0,13.1,2.3,17,7c4.1,4.6,6,11.3,6,19.9v4.9H1243c0.4,4.5,1.9,8,4.5,10.6
		c2.6,2.6,6,3.9,9.9,3.9c5.5,0,10-2.2,13.5-6.7l6.5,6.2c-2.2,3.2-5.1,5.7-8.6,7.6C1265.5,911.6,1261.5,912.5,1257,912.5z
		 M1255.5,866.3c-3.3,0-6,1.2-8,3.5c-2,2.3-3.3,5.5-3.9,9.7h23.1v-0.9c-0.3-4.1-1.3-7.1-3.2-9.1
		C1261.6,867.4,1259,866.3,1255.5,866.3z"/>
</g>
<g>
	<path class="st7" d="M1949.6,339.8c0-52.5-19.6-100.5-51.9-136.9c-37.7-39.4-90.7-63.9-149.4-63.9c-114.1,0-206.6,92.5-206.6,206.6
		c0,52.5,19.6,100.5,51.9,136.9c37.7,39.4,90.7,63.9,149.4,63.9C1857.1,546.4,1949.6,453.9,1949.6,339.8z"/>
</g>
<g>
	<g>
		<g>
			<g>
				<path class="st2" d="M1903.4,342.7c0,87.2-70.6,157.8-157.8,157.8s-157.8-70.6-157.8-157.8s70.6-157.8,157.8-157.8
					S1903.4,255.6,1903.4,342.7z"/>
			</g>
		</g>
	</g>
	<g>
		
			<radialGradient id="SVGID_4_" cx="1615.6547" cy="2463.3054" r="455.8131" gradientTransform="matrix(1 0 0 1 0 -2268.1582)" gradientUnits="userSpaceOnUse">
			<stop  offset="0" style="stop-color:#F7F7F8"/>
			<stop  offset="0.6406" style="stop-color:#FDFDFE"/>
			<stop  offset="0.7151" style="stop-color:#FFFFFF"/>
		</radialGradient>
		<path class="st8" d="M1903.4,342.7c0-40.1-14.9-76.7-39.5-104.5c-28.8-30.1-69.3-48.8-114.1-48.8c-87.2,0-157.8,70.6-157.8,157.8
			c0,40.1,14.9,76.7,39.7,104.5c28.8,30.1,69.3,48.8,114.1,48.8C1832.7,500.4,1903.4,429.8,1903.4,342.7z"/>
	</g>
	<g>
		<g>
			<path class="st9" d="M1887.5,273.5c8.7,19.6,13.6,41.3,13.6,64c0,87.2-70.6,157.8-157.8,157.8c-52.3,0-98.7-25.6-127.4-64.7
				c4.7,7.4,10,14.5,15.7,21c28.8,30.1,69.3,48.8,114.1,48.8c87.2,0,157.8-70.6,157.8-157.8C1903.4,317.9,1897.6,294.4,1887.5,273.5
				z"/>
		</g>
	</g>
</g>
<g>
	<g>
		
			<linearGradient id="SVGID_5_" gradientUnits="userSpaceOnUse" x1="1797.4232" y1="3160.2668" x2="3183.4036" y2="2736.4253" gradientTransform="matrix(1 0 0 1 0 -2268.1582)">
			<stop  offset="0.1548" style="stop-color:#C51F4B"/>
			<stop  offset="0.2569" style="stop-color:#B41E46"/>
		</linearGradient>
		<path class="st10" d="M2125,851.4c0-52.5-19.6-100.5-51.9-136.9c-37.7-39.4-90.7-63.9-149.4-63.9c-114.1,0-206.6,92.5-206.6,206.6
			c0,52.5,19.6,100.5,51.9,136.9c37.7,39.4,90.7,63.9,149.4,63.9C2032.4,1058,2125,965.5,2125,851.4z"/>
	</g>
	<g>
		<g>
			<g>
				<g>
					<g>
						<path class="st2" d="M2078.7,854.3c0,87.2-70.6,157.8-157.8,157.8s-157.8-70.6-157.8-157.8s70.6-157.8,157.8-157.8
							C2008.1,696.5,2078.7,767.2,2078.7,854.3z"/>
					</g>
				</g>
			</g>
			<g>
				
					<radialGradient id="SVGID_6_" cx="1791.0066" cy="2974.8979" r="455.8131" gradientTransform="matrix(1 0 0 1 0 -2268.1582)" gradientUnits="userSpaceOnUse">
					<stop  offset="0" style="stop-color:#F7F7F8"/>
					<stop  offset="0.6406" style="stop-color:#FDFDFE"/>
					<stop  offset="0.7151" style="stop-color:#FFFFFF"/>
				</radialGradient>
				<path class="st11" d="M2078.7,854.3c0-40.1-14.9-76.7-39.5-104.5c-28.8-30.1-69.3-48.8-114.1-48.8
					c-87.2,0-157.8,70.6-157.8,157.8c0,40.1,14.9,76.7,39.7,104.5c28.8,30.1,69.3,48.8,114.1,48.8
					C2008.1,1012,2078.7,941.4,2078.7,854.3z"/>
			</g>
			<g>
				<g>
					<path class="st9" d="M2062.8,785.1c8.7,19.6,13.6,41.3,13.6,64c0,87.2-70.6,157.8-157.8,157.8c-52.3,0-98.7-25.6-127.4-64.7
						c4.7,7.4,10,14.5,15.7,21c28.8,30.1,69.3,48.8,114.1,48.8c87.2,0,157.8-70.6,157.8-157.8C2078.7,829.5,2073,806,2062.8,785.1z"
						/>
				</g>
			</g>
		</g>
		<g>
			<path class="st12" d="M1869.8,821.7c0,3.6-0.7,6.7-1.7,9.4c-1.2,2.7-3,4.7-5.1,6.1c-2.2,1.3-4.8,2.2-7.7,2.2s-5.4-0.7-7.7-2.2
				c-2.2-1.3-3.9-3.5-5.2-6.1c-1.2-2.6-1.9-5.6-1.9-9.1v-2.7c0-3.5,0.7-6.6,1.9-9.3c1.2-2.7,3-4.7,5.2-6.2c2.3-1.5,4.8-2.2,7.7-2.2
				c3,0,5.5,0.7,7.7,2.2c2.3,1.5,3.9,3.5,5.1,6.2c1.2,2.7,1.7,5.8,1.7,9.4V821.7L1869.8,821.7z M1865,819.4c0-4.3-0.8-7.7-2.6-10
				c-1.7-2.3-4.2-3.5-7.3-3.5s-5.4,1.2-7.1,3.5c-1.7,2.3-2.7,5.5-2.7,9.7v2.7c0,4.2,0.9,7.5,2.7,10s4.2,3.6,7.3,3.6
				c3.1,0,5.5-1.2,7.3-3.4c1.7-2.3,2.6-5.5,2.7-9.7L1865,819.4L1865,819.4z"/>
			<path class="st12" d="M1893.1,836.2c-1.7,2.2-4.4,3.2-7.9,3.2c-3,0-5.1-0.8-6.6-2.6c-1.5-1.6-2.3-4.2-2.3-7.5v-17.6h4.7v17.5
				c0,4.2,1.6,6.2,5,6.2c3.5,0,5.9-1.3,7.1-4v-19.8h4.7v27.2h-4.4L1893.1,836.2z"/>
			<path class="st12" d="M1911,805.2v6.6h5.1v3.6h-5.1v16.8c0,1.1,0.3,1.9,0.7,2.4s1.2,0.8,2.3,0.8c0.5,0,1.2-0.1,2.2-0.3v3.8
				c-1.2,0.3-2.4,0.5-3.6,0.5c-2,0-3.6-0.7-4.7-1.9c-1.1-1.2-1.6-3.1-1.6-5.4v-16.8h-5v-3.6h5v-6.6H1911L1911,805.2z"/>
			<path class="st12" d="M1944.3,825.6c0,4.2-0.9,7.4-2.8,10c-1.9,2.6-4.4,3.8-7.7,3.8c-3.2,0-5.9-1.1-7.8-3.1v13h-4.7v-37.5h4.3
				l0.3,3c1.9-2.3,4.6-3.5,7.8-3.5s5.8,1.2,7.7,3.6s2.8,5.9,2.8,10.2v0.5H1944.3z M1939.7,825.1c0-3.1-0.7-5.5-2-7.3
				c-1.3-1.7-3.1-2.7-5.4-2.7c-2.8,0-5,1.2-6.3,3.8v12.9c1.3,2.4,3.5,3.8,6.3,3.8c2.2,0,4-0.9,5.2-2.7
				C1939.1,831.1,1939.7,828.6,1939.7,825.1z"/>
			<path class="st12" d="M1967.1,836.2c-1.7,2.2-4.4,3.2-7.9,3.2c-3,0-5.1-0.8-6.6-2.6c-1.5-1.6-2.3-4.2-2.3-7.5v-17.6h4.7v17.5
				c0,4.2,1.6,6.2,5,6.2c3.5,0,5.9-1.3,7.1-4v-19.8h4.7v27.2h-4.4L1967.1,836.2z"/>
			<path class="st12" d="M1984.8,805.2v6.6h5.1v3.6h-5.1v16.8c0,1.1,0.3,1.9,0.7,2.4s1.2,0.8,2.3,0.8c0.5,0,1.2-0.1,2.2-0.3v3.8
				c-1.2,0.3-2.4,0.5-3.6,0.5c-2,0-3.6-0.7-4.7-1.9c-1.1-1.2-1.6-3.1-1.6-5.4v-16.8h-5v-3.6h5v-6.6H1984.8L1984.8,805.2z"/>
			<path class="st12" d="M1847.3,900.5v-36.5h12c4,0,7,0.8,8.9,2.4c1.9,1.6,3,4,3,7.3c0,1.7-0.5,3.2-1.5,4.6c-0.9,1.3-2.3,2.3-4,3.1
				c2,0.5,3.5,1.6,4.7,3.1c1.2,1.5,1.7,3.4,1.7,5.5c0,3.2-1.1,5.9-3.2,7.7c-2.2,1.9-5.1,2.8-9,2.8L1847.3,900.5L1847.3,900.5z
				 M1852.2,879.5h7.3c2.2,0,3.8-0.5,5.1-1.6c1.2-1.1,1.9-2.6,1.9-4.3c0-2-0.5-3.5-1.7-4.4c-1.2-0.9-3-1.3-5.4-1.3h-7.1V879.5
				L1852.2,879.5z M1852.2,883.4v13.2h7.9c2.3,0,4-0.5,5.2-1.7c1.3-1.2,1.9-2.7,1.9-4.8c0-4.4-2.4-6.6-7.1-6.6H1852.2L1852.2,883.4z
				"/>
			<path class="st12" d="M1895.4,897.8c-1.7,2.2-4.4,3.2-7.9,3.2c-3,0-5.1-0.8-6.6-2.6c-1.5-1.6-2.3-4.2-2.3-7.5v-17.6h4.7v17.5
				c0,4.2,1.6,6.2,5,6.2c3.5,0,5.9-1.3,7.1-4v-19.8h4.7v27.2h-4.4L1895.4,897.8z"/>
			<path class="st12" d="M1915.8,893.7l6.3-20.3h5l-10.9,31.3c-1.6,4.6-4.3,6.7-8.1,6.7l-0.9-0.1l-1.7-0.3v-3.8l1.2,0.1
				c1.6,0,2.8-0.3,3.6-0.9c0.9-0.7,1.6-1.7,2.2-3.5l1.1-2.7l-9.7-26.8h5.1L1915.8,893.7z"/>
			<path class="st12" d="M1942.6,900.9c-3.6,0-6.7-1.2-9-3.6c-2.3-2.4-3.5-5.6-3.5-9.7v-0.8c0-2.7,0.5-5.1,1.5-7.3
				c1.1-2.2,2.4-3.8,4.3-5c1.9-1.2,3.9-1.7,6.1-1.7c3.5,0,6.3,1.2,8.2,3.5c2,2.3,3,5.6,3,10v1.9h-18.3c0.1,2.7,0.8,4.8,2.3,6.5
				c1.5,1.6,3.4,2.4,5.6,2.4c1.6,0,3.1-0.3,4.2-0.9c1.2-0.7,2.2-1.6,3-2.7l2.8,2.2C1950.5,899.2,1947.1,900.9,1942.6,900.9z
				 M1941.9,876.7c-1.9,0-3.5,0.7-4.7,2c-1.2,1.3-2,3.2-2.4,5.8h13.6v-0.4c-0.1-2.4-0.8-4.2-1.9-5.5
				C1945.4,877.3,1943.9,876.7,1941.9,876.7z"/>
			<path class="st12" d="M1971.6,877.5c-0.7-0.1-1.5-0.1-2.3-0.1c-3.1,0-5.1,1.3-6.2,3.9v19.2h-4.7v-27.2h4.6l0.1,3.1
				c1.5-2.4,3.6-3.6,6.5-3.6c0.9,0,1.6,0.1,2,0.4L1971.6,877.5L1971.6,877.5z"/>
			<path class="st12" d="M1991.7,893.3c0-1.2-0.4-2.2-1.5-3c-0.9-0.7-2.6-1.3-5-1.7c-2.4-0.5-4.2-1.1-5.6-1.7
				c-1.3-0.7-2.4-1.5-3.1-2.6c-0.7-0.9-0.9-2.2-0.9-3.5c0-2.2,0.9-4.2,2.8-5.6c1.9-1.5,4.3-2.3,7.3-2.3c3.1,0,5.5,0.8,7.5,2.4
				c2,1.6,2.8,3.6,2.8,6.1h-4.7c0-1.2-0.5-2.4-1.6-3.2c-1.1-0.9-2.4-1.3-4-1.3c-1.6,0-3,0.4-4,1.1c-0.9,0.8-1.5,1.7-1.5,3
				c0,1.1,0.4,2,1.3,2.6c0.9,0.5,2.6,1.1,4.8,1.6c2.3,0.5,4.2,1.2,5.6,1.9s2.6,1.6,3.2,2.6s1.1,2.3,1.1,3.6c0,2.4-0.9,4.3-3,5.8
				c-1.9,1.5-4.4,2.2-7.5,2.2c-2.2,0-4-0.4-5.8-1.2c-1.7-0.8-3-1.9-3.9-3.2c-0.9-1.3-1.5-2.8-1.5-4.4h4.7c0.1,1.6,0.7,2.8,1.9,3.6
				c1.2,0.8,2.7,1.3,4.6,1.3c1.7,0,3.2-0.4,4.2-1.1C1991.1,895.4,1991.7,894.5,1991.7,893.3z"/>
		</g>
	</g>
</g>
<g>
	<g>
		<path class="st13" d="M1954.7,1311.4c0-52.5-19.6-100.5-51.9-136.9c-37.7-39.4-90.7-63.9-149.4-63.9
			c-114.1,0-206.6,92.5-206.6,206.6c0,52.5,19.6,100.5,51.9,136.9c37.7,39.4,90.7,63.9,149.4,63.9
			C1862.1,1517.9,1954.7,1425.5,1954.7,1311.4z"/>
	</g>
	<g>
		<g>
			<g>
				<g>
					<g>
						<path class="st2" d="M1908.4,1314.3c0,87.2-70.6,157.8-157.8,157.8s-157.8-70.6-157.8-157.8s70.6-157.8,157.8-157.8
							C1837.8,1156.5,1908.4,1227.1,1908.4,1314.3z"/>
					</g>
				</g>
			</g>
			<g>
				
					<radialGradient id="SVGID_7_" cx="1620.7256" cy="3434.8728" r="455.8131" gradientTransform="matrix(1 0 0 1 0 -2268.1582)" gradientUnits="userSpaceOnUse">
					<stop  offset="0" style="stop-color:#F7F7F8"/>
					<stop  offset="0.6406" style="stop-color:#FDFDFE"/>
					<stop  offset="0.7151" style="stop-color:#FFFFFF"/>
				</radialGradient>
				<path class="st14" d="M1908.4,1314.3c0-40.1-14.9-76.7-39.5-104.5c-28.8-30.1-69.3-48.8-114.1-48.8
					c-87.2,0-157.8,70.6-157.8,157.8c0,40.1,14.9,76.7,39.7,104.5c28.8,30.1,69.3,48.8,114.1,48.8
					C1837.8,1472,1908.4,1401.4,1908.4,1314.3z"/>
			</g>
			<g>
				<g>
					<path class="st9" d="M1892.5,1245.1c8.7,19.6,13.6,41.3,13.6,64c0,87.2-70.6,157.8-157.8,157.8c-52.3,0-98.7-25.6-127.4-64.7
						c4.7,7.4,10,14.5,15.7,21c28.8,30.1,69.3,48.8,114.1,48.8c87.2,0,157.8-70.6,157.8-157.8
						C1908.4,1289.5,1902.8,1266,1892.5,1245.1z"/>
				</g>
			</g>
		</g>
		<g>
			<path class="st12" d="M1641.8,1266.4h-15.3v16.1h-4.8v-36.5h22.6v3.9h-17.8v12.5h15.3L1641.8,1266.4L1641.8,1266.4z"/>
			<path class="st12" d="M1649.4,1248.1c0-0.8,0.3-1.3,0.7-1.9c0.4-0.5,1.2-0.8,2-0.8s1.6,0.3,2,0.8c0.4,0.5,0.7,1.2,0.7,1.9
				c0,0.7-0.3,1.3-0.7,1.9c-0.4,0.5-1.2,0.8-2,0.8s-1.6-0.3-2-0.8C1649.6,1249.6,1649.4,1248.9,1649.4,1248.1z M1654.3,1282.5h-4.7
				v-27.2h4.7V1282.5z"/>
			<path class="st12" d="M1666.2,1255.3l0.1,3.4c2-2.6,4.8-3.9,8.1-3.9c5.8,0,8.6,3.2,8.7,9.7v17.9h-4.7v-17.9c0-2-0.4-3.4-1.3-4.3
				c-0.9-0.9-2.3-1.3-4.2-1.3c-1.5,0-2.8,0.4-4,1.2c-1.2,0.8-2,1.9-2.7,3.1v19.4h-4.7v-27.2L1666.2,1255.3L1666.2,1255.3z"/>
			<path class="st12" d="M1706.9,1282.5c-0.3-0.5-0.5-1.5-0.7-2.8c-2.2,2.3-4.7,3.4-7.7,3.4c-2.7,0-4.8-0.8-6.6-2.3
				s-2.6-3.5-2.6-5.8c0-2.8,1.1-5,3.2-6.6s5.1-2.3,9-2.3h4.6v-2.2c0-1.6-0.5-3-1.5-3.9c-0.9-0.9-2.4-1.5-4.3-1.5
				c-1.6,0-3.1,0.4-4.2,1.2s-1.6,1.9-1.6,3.1h-4.7c0-1.3,0.5-2.7,1.5-3.9c0.9-1.2,2.3-2.3,3.9-3c1.6-0.7,3.5-1.1,5.4-1.1
				c3.1,0,5.5,0.8,7.4,2.3c1.7,1.6,2.7,3.8,2.7,6.5v12.5c0,2.6,0.3,4.4,0.9,5.9v0.4L1706.9,1282.5L1706.9,1282.5z M1699.1,1278.9
				c1.5,0,2.8-0.4,4.2-1.1c1.3-0.8,2.3-1.7,2.8-3v-5.5h-3.6c-5.6,0-8.5,1.6-8.5,5c0,1.5,0.5,2.6,1.5,3.4
				C1696.4,1278.5,1697.6,1278.9,1699.1,1278.9z"/>
			<path class="st12" d="M1722.4,1255.3l0.1,3.4c2-2.6,4.8-3.9,8.1-3.9c5.8,0,8.6,3.2,8.7,9.7v17.9h-4.7v-17.9c0-2-0.4-3.4-1.3-4.3
				c-0.9-0.9-2.3-1.3-4.2-1.3c-1.5,0-2.8,0.4-4,1.2c-1.2,0.8-2,1.9-2.7,3.1v19.4h-4.7v-27.2L1722.4,1255.3L1722.4,1255.3z"/>
			<path class="st12" d="M1757.4,1279.2c1.6,0,3.1-0.5,4.3-1.5c1.2-0.9,1.9-2.3,2-3.8h4.4c-0.1,1.6-0.7,3.1-1.6,4.4
				c-0.9,1.3-2.3,2.6-3.9,3.4c-1.6,0.8-3.4,1.2-5.2,1.2c-3.6,0-6.6-1.2-8.9-3.6c-2.2-2.4-3.2-5.8-3.2-10.1v-0.8c0-2.7,0.5-5,1.5-7
				c0.9-2,2.4-3.6,4.2-4.8c1.9-1.2,4-1.7,6.5-1.7c3.1,0,5.5,0.9,7.5,2.7c2,1.9,3.1,4.2,3.2,7.1h-4.4c-0.1-1.7-0.8-3.2-2-4.3
				s-2.7-1.7-4.4-1.7c-2.4,0-4.2,0.8-5.5,2.6c-1.3,1.7-1.9,4.2-1.9,7.4v0.9c0,3.1,0.7,5.5,1.9,7.3
				C1753.1,1278.3,1754.9,1279.2,1757.4,1279.2z"/>
			<path class="st12" d="M1773.4,1248.1c0-0.8,0.3-1.3,0.7-1.9c0.4-0.5,1.2-0.8,2-0.8s1.6,0.3,2,0.8c0.4,0.5,0.7,1.2,0.7,1.9
				c0,0.7-0.3,1.3-0.7,1.9s-1.2,0.8-2,0.8s-1.6-0.3-2-0.8C1773.5,1249.6,1773.4,1248.9,1773.4,1248.1z M1778.3,1282.5h-4.7v-27.2
				h4.7V1282.5z"/>
			<path class="st12" d="M1790.2,1255.3l0.1,3.4c2-2.6,4.8-3.9,8.1-3.9c5.8,0,8.6,3.2,8.7,9.7v17.9h-4.7v-17.9c0-2-0.4-3.4-1.3-4.3
				c-0.9-0.9-2.3-1.3-4.2-1.3c-1.5,0-2.8,0.4-4,1.2c-1.2,0.8-2,1.9-2.7,3.1v19.4h-4.7v-27.2L1790.2,1255.3L1790.2,1255.3z"/>
			<path class="st12" d="M1813,1268.7c0-4.2,0.9-7.5,3-10.1s4.6-3.8,7.8-3.8c3.4,0,5.9,1.2,7.8,3.5l0.3-3h4.3v26.5
				c0,3.5-1.1,6.3-3.1,8.3s-4.8,3.1-8.3,3.1c-2,0-3.9-0.4-5.8-1.2c-1.9-0.8-3.2-2-4.3-3.5l2.4-2.8c2,2.4,4.4,3.6,7.3,3.6
				c2.3,0,4-0.7,5.2-1.9s1.9-3.1,1.9-5.4v-2.3c-1.9,2.2-4.4,3.2-7.5,3.2c-3.2,0-5.8-1.3-7.7-3.8
				C1814,1276.6,1813,1273.1,1813,1268.7z M1817.6,1269.2c0,3.1,0.7,5.5,1.9,7.3s3,2.6,5.2,2.6c3,0,5.1-1.3,6.5-4v-12.4
				c-1.5-2.6-3.5-3.9-6.5-3.9c-2.3,0-4,0.9-5.2,2.7S1817.6,1265.7,1817.6,1269.2z"/>
			<path class="st12" d="M1854.6,1272.7c0-1.7,0.5-3.4,1.5-4.8c0.9-1.5,2.8-3.2,5.6-5.1c-1.6-2-2.7-3.6-3.2-4.7
				c-0.5-1.2-0.8-2.4-0.8-3.6c0-2.8,0.8-5,2.4-6.5c1.6-1.5,3.9-2.4,6.7-2.4c2.6,0,4.6,0.7,6.2,2.2c1.6,1.5,2.4,3.4,2.4,5.5
				c0,1.5-0.4,2.8-1.1,4c-0.8,1.2-2,2.6-3.9,3.9l-2.7,2l8.1,9.7c1.2-2.2,1.7-4.6,1.7-7.3h4.2c0,4.3-1.1,7.8-3.1,10.6l5.2,6.2h-5.5
				l-2.4-3c-1.2,1.1-2.7,1.9-4.3,2.6c-1.6,0.5-3.4,0.8-5.1,0.8c-3.6,0-6.5-0.9-8.6-2.8C1855.7,1278.2,1854.6,1275.8,1854.6,1272.7z
				 M1866.4,1279.2c2.4,0,4.7-0.9,6.7-2.8l-8.9-10.6l-0.8,0.7c-2.8,2-4.2,4.2-4.2,6.3c0,2,0.7,3.5,1.9,4.7
				C1862.5,1278.6,1864.3,1279.2,1866.4,1279.2z M1862.3,1254.1c0,1.6,0.9,3.6,3,6.1l3-2c1.2-0.8,1.9-1.6,2.3-2.3
				c0.4-0.7,0.7-1.6,0.7-2.7c0-1.1-0.4-2-1.2-2.8s-1.9-1.1-3.1-1.1c-1.3,0-2.4,0.4-3.2,1.3
				C1862.7,1251.6,1862.3,1252.8,1862.3,1254.1z"/>
			<path class="st12" d="M1648.1,1344.1h-4.8v-36.5h4.8V1344.1z"/>
			<path class="st12" d="M1660.6,1316.9l0.1,3.4c2-2.6,4.8-3.9,8.1-3.9c5.8,0,8.6,3.2,8.7,9.7v17.9h-4.7v-17.9c0-2-0.4-3.4-1.3-4.3
				c-0.9-0.9-2.3-1.3-4.2-1.3c-1.5,0-2.8,0.4-4,1.2s-2,1.9-2.7,3.1v19.4h-4.7v-27.2L1660.6,1316.9L1660.6,1316.9z"/>
			<path class="st12" d="M1700.5,1336.9c0-1.2-0.4-2.2-1.5-3c-0.9-0.7-2.6-1.3-5-1.7c-2.4-0.5-4.2-1.1-5.6-1.7
				c-1.3-0.7-2.4-1.5-3.1-2.6c-0.7-0.9-0.9-2.2-0.9-3.5c0-2.2,0.9-4.2,2.8-5.6c1.9-1.5,4.3-2.3,7.3-2.3c3.1,0,5.5,0.8,7.5,2.4
				c1.9,1.6,2.8,3.6,2.8,6.1h-4.7c0-1.2-0.5-2.4-1.6-3.2c-1.1-0.9-2.4-1.3-4-1.3s-3,0.4-4,1.1c-1.1,0.7-1.5,1.7-1.5,3
				c0,1.1,0.4,2,1.3,2.6c0.9,0.5,2.6,1.1,4.8,1.6c2.3,0.5,4.2,1.2,5.6,1.9c1.5,0.7,2.6,1.6,3.2,2.6c0.7,0.9,1.1,2.3,1.1,3.6
				c0,2.4-0.9,4.3-3,5.8c-2,1.5-4.4,2.2-7.5,2.2c-2.2,0-4-0.4-5.8-1.2c-1.6-0.8-3-1.9-3.9-3.2c-0.9-1.3-1.5-2.8-1.5-4.4h4.7
				c0.1,1.6,0.7,2.8,1.9,3.6s2.7,1.3,4.6,1.3c1.7,0,3.2-0.4,4.2-1.1C1699.9,1339,1700.5,1338.1,1700.5,1336.9z"/>
			<path class="st12" d="M1727.9,1341.4c-1.7,2.2-4.4,3.2-7.9,3.2c-3,0-5.1-0.8-6.6-2.6c-1.5-1.6-2.3-4.2-2.3-7.5v-17.6h4.7v17.5
				c0,4.2,1.6,6.2,5,6.2c3.5,0,5.9-1.3,7.1-4v-19.8h4.7v27.2h-4.4L1727.9,1341.4z"/>
			<path class="st12" d="M1752.5,1321.1c-0.7-0.1-1.5-0.1-2.3-0.1c-3.1,0-5.1,1.3-6.2,3.9v19.2h-4.7v-27.2h4.6l0.1,3.1
				c1.5-2.4,3.6-3.6,6.5-3.6c0.9,0,1.6,0.1,2,0.4L1752.5,1321.1L1752.5,1321.1z"/>
			<path class="st12" d="M1772.6,1344.1c-0.3-0.5-0.5-1.5-0.7-2.8c-2.2,2.3-4.7,3.4-7.7,3.4c-2.7,0-4.8-0.8-6.6-2.3
				c-1.7-1.5-2.6-3.5-2.6-5.8c0-2.8,1.1-5,3.2-6.6c2.2-1.6,5.1-2.3,9-2.3h4.6v-2.2c0-1.6-0.5-3-1.5-3.9c-0.9-0.9-2.4-1.5-4.3-1.5
				c-1.6,0-3.1,0.4-4.2,1.2s-1.6,1.9-1.6,3.1h-4.7c0-1.3,0.5-2.7,1.5-3.9c0.9-1.2,2.3-2.3,3.9-3c1.6-0.8,3.5-1.1,5.4-1.1
				c3.1,0,5.5,0.8,7.4,2.3c1.9,1.5,2.7,3.8,2.7,6.5v12.5c0,2.6,0.3,4.4,0.9,5.9v0.4L1772.6,1344.1L1772.6,1344.1z M1764.9,1340.6
				c1.5,0,2.8-0.4,4.2-1.1c1.3-0.8,2.3-1.7,2.8-3v-5.5h-3.6c-5.6,0-8.5,1.6-8.5,5c0,1.5,0.5,2.6,1.5,3.4
				C1762.1,1340.2,1763.3,1340.6,1764.9,1340.6z"/>
			<path class="st12" d="M1788.2,1316.9l0.1,3.4c2-2.6,4.8-3.9,8.1-3.9c5.8,0,8.6,3.2,8.7,9.7v17.9h-4.7v-17.9c0-2-0.4-3.4-1.3-4.3
				c-0.9-0.9-2.3-1.3-4.2-1.3c-1.5,0-2.8,0.4-4,1.2s-2,1.9-2.7,3.1v19.4h-4.7v-27.2L1788.2,1316.9L1788.2,1316.9z"/>
			<path class="st12" d="M1823,1340.9c1.6,0,3.1-0.5,4.3-1.5c1.2-0.9,1.9-2.3,2-3.8h4.4c-0.1,1.6-0.7,3.1-1.6,4.4
				c-0.9,1.3-2.3,2.6-3.9,3.4c-1.6,0.8-3.4,1.2-5.2,1.2c-3.6,0-6.6-1.2-8.9-3.6c-2.2-2.4-3.2-5.8-3.2-10.1v-0.8c0-2.7,0.5-5,1.5-7
				c0.9-2,2.4-3.6,4.2-4.8c1.9-1.2,4-1.7,6.5-1.7c3.1,0,5.5,0.9,7.5,2.7c2,1.9,3.1,4.2,3.2,7.1h-4.4c-0.1-1.7-0.8-3.2-2-4.3
				c-1.2-1.1-2.7-1.6-4.4-1.6c-2.4,0-4.2,0.8-5.5,2.6s-1.9,4.2-1.9,7.4v0.9c0,3.1,0.7,5.5,1.9,7.3
				C1818.7,1340.1,1820.6,1340.9,1823,1340.9z"/>
			<path class="st12" d="M1850.2,1344.7c-3.6,0-6.7-1.2-9-3.6c-2.3-2.4-3.5-5.6-3.5-9.7v-0.8c0-2.7,0.5-5.1,1.5-7.3
				c1.1-2.2,2.4-3.8,4.3-5c1.9-1.2,3.9-1.7,6.1-1.7c3.5,0,6.3,1.2,8.2,3.5c1.9,2.3,3,5.6,3,10v1.9h-18.4c0.1,2.7,0.8,4.8,2.3,6.5
				c1.5,1.6,3.4,2.4,5.6,2.4c1.6,0,3.1-0.3,4.2-0.9c1.1-0.7,2.2-1.6,3-2.7l2.8,2.2C1858.2,1342.9,1854.7,1344.7,1850.2,1344.7z
				 M1849.6,1320.3c-1.9,0-3.5,0.7-4.7,2s-2,3.2-2.4,5.8h13.6v-0.4c-0.1-2.4-0.8-4.2-1.9-5.5
				C1853.1,1321,1851.5,1320.3,1849.6,1320.3z"/>
			<path class="st12" d="M1651.9,1391.5v14.3h-4.8v-36.5h13.5c4,0,7.1,1.1,9.4,3.1s3.4,4.7,3.4,8.1c0,3.5-1.1,6.3-3.4,8.2
				c-2.2,1.9-5.4,2.8-9.5,2.8H1651.9L1651.9,1391.5z M1651.9,1387.6h8.6c2.6,0,4.6-0.7,5.9-1.9c1.3-1.2,2-3,2-5.2
				c0-2.2-0.7-3.9-2-5.2c-1.3-1.3-3.2-2-5.6-2h-8.9L1651.9,1387.6L1651.9,1387.6z"/>
			<path class="st12" d="M1692,1382.7c-0.7-0.1-1.5-0.1-2.3-0.1c-3.1,0-5.1,1.3-6.2,3.9v19.2h-4.7v-27.2h4.6l0.1,3.1
				c1.5-2.4,3.6-3.6,6.5-3.6c0.9,0,1.6,0.1,2,0.4L1692,1382.7L1692,1382.7z"/>
			<path class="st12" d="M1694.5,1391.9c0-2.7,0.5-5,1.6-7.1c1.1-2.2,2.6-3.8,4.3-5c1.9-1.2,4-1.7,6.3-1.7c3.6,0,6.7,1.3,9,3.8
				c2.3,2.6,3.5,5.9,3.5,10.2v0.3c0,2.7-0.5,5-1.5,7.1c-0.9,2.2-2.4,3.8-4.3,4.8c-1.9,1.1-4,1.7-6.5,1.7c-3.6,0-6.6-1.3-8.9-3.8
				c-2.3-2.6-3.5-5.9-3.5-10.2L1694.5,1391.9L1694.5,1391.9z M1699.1,1392.5c0,3,0.7,5.4,2.2,7.3c1.3,1.9,3.2,2.7,5.6,2.7
				c2.4,0,4.2-0.9,5.6-2.8c1.3-1.9,2-4.4,2-7.8c0-3-0.7-5.4-2.2-7.3c-1.5-1.9-3.2-2.8-5.6-2.8c-2.3,0-4.2,0.9-5.5,2.7
				C1699.8,1386.5,1699.1,1389,1699.1,1392.5z"/>
			<path class="st12" d="M1733.6,1399.4l6.7-20.8h4.7l-9.7,27.2h-3.5l-9.8-27.2h4.7L1733.6,1399.4z"/>
			<path class="st12" d="M1749.6,1371.4c0-0.8,0.3-1.3,0.7-1.9c0.4-0.5,1.2-0.8,2-0.8s1.6,0.3,2,0.8c0.4,0.5,0.7,1.2,0.7,1.9
				c0,0.8-0.3,1.3-0.7,1.9c-0.4,0.5-1.2,0.8-2,0.8s-1.6-0.3-2-0.8C1749.8,1372.8,1749.6,1372.2,1749.6,1371.4z M1754.5,1405.7h-4.7
				v-27.2h4.7V1405.7z"/>
			<path class="st12" d="M1760.9,1392c0-4.2,0.9-7.5,3-10.1s4.6-3.8,7.8-3.8s5.6,1.1,7.5,3.2v-14.1h4.7v38.5h-4.3l-0.3-3
				c-1.9,2.3-4.4,3.4-7.8,3.4c-3.1,0-5.6-1.3-7.7-3.9c-2-2.6-3-5.9-3-10.1L1760.9,1392L1760.9,1392z M1765.4,1392.5
				c0,3.1,0.7,5.5,1.9,7.3c1.2,1.7,3.1,2.6,5.2,2.6c3,0,5.1-1.3,6.5-4v-12.5c-1.3-2.6-3.5-3.8-6.5-3.8c-2.3,0-4,0.9-5.4,2.7
				C1766.1,1386.5,1765.4,1389,1765.4,1392.5z"/>
			<path class="st12" d="M1802.1,1406.3c-3.6,0-6.7-1.2-9-3.6c-2.3-2.4-3.5-5.6-3.5-9.7v-0.8c0-2.7,0.5-5.1,1.5-7.3
				c1.1-2.2,2.4-3.8,4.3-5c1.9-1.2,3.9-1.7,6.1-1.7c3.5,0,6.3,1.2,8.2,3.5c2,2.3,3,5.6,3,10v1.9h-18.4c0.1,2.7,0.8,4.8,2.3,6.5
				c1.5,1.6,3.4,2.4,5.6,2.4c1.6,0,3.1-0.3,4.2-0.9c1.2-0.7,2.2-1.6,3-2.7l2.8,2.2C1810.2,1404.5,1806.7,1406.3,1802.1,1406.3z
				 M1801.6,1381.9c-1.9,0-3.5,0.7-4.7,2c-1.2,1.3-2,3.2-2.4,5.8h13.6v-0.4c-0.1-2.4-0.8-4.2-1.9-5.5
				C1805.1,1382.6,1803.6,1381.9,1801.6,1381.9z"/>
			<path class="st12" d="M1831.3,1382.7c-0.7-0.1-1.5-0.1-2.3-0.1c-3.1,0-5.1,1.3-6.2,3.9v19.2h-4.7v-27.2h4.6l0.1,3.1
				c1.5-2.4,3.6-3.6,6.5-3.6c0.9,0,1.6,0.1,2,0.4L1831.3,1382.7L1831.3,1382.7z"/>
			<path class="st12" d="M1851.4,1398.6c0-1.2-0.4-2.2-1.5-3c-0.9-0.7-2.6-1.3-5-1.7c-2.4-0.5-4.2-1.1-5.6-1.7
				c-1.3-0.7-2.4-1.5-3.1-2.6c-0.7-0.9-0.9-2.2-0.9-3.5c0-2.2,0.9-4.2,2.8-5.6c1.9-1.5,4.3-2.3,7.3-2.3c3.1,0,5.5,0.8,7.5,2.4
				c1.9,1.6,2.8,3.6,2.8,6.1h-4.7c0-1.2-0.5-2.4-1.6-3.2c-1.1-0.9-2.4-1.3-4-1.3s-3,0.4-4,1.1c-0.9,0.8-1.5,1.7-1.5,3
				c0,1.1,0.4,2,1.3,2.6c0.9,0.5,2.6,1.1,4.8,1.6c2.3,0.5,4.2,1.2,5.6,1.9c1.5,0.7,2.6,1.6,3.2,2.6c0.7,0.9,1.1,2.3,1.1,3.6
				c0,2.4-0.9,4.3-3,5.8c-1.9,1.5-4.4,2.2-7.5,2.2c-2.2,0-4-0.4-5.8-1.2c-1.6-0.8-3-1.9-3.9-3.2c-0.9-1.3-1.5-2.8-1.5-4.4h4.7
				c0.1,1.6,0.7,2.8,1.9,3.6s2.7,1.3,4.6,1.3c1.7,0,3.2-0.4,4.2-1.1C1850.8,1400.7,1851.4,1399.8,1851.4,1398.6z"/>
		</g>
	</g>
</g>
<g>
	<g>
		<path class="st5" d="M650.3,532.8c0-52.5-19.6-100.5-51.9-136.9C560.7,356.5,507.7,332,449,332c-114.1,0-206.6,92.5-206.6,206.6
			c0,52.5,19.6,100.5,51.9,136.9c37.7,39.4,90.7,63.9,149.4,63.9C557.8,739.4,650.3,646.9,650.3,532.8z"/>
	</g>
	<g>
		<g>
			<g>
				<g>
					<g>
						<path class="st2" d="M604.1,535.6c0,87.2-70.6,157.8-157.8,157.8s-157.8-70.6-157.8-157.8s70.6-157.8,157.8-157.8
							C533.4,378,604.1,448.6,604.1,535.6z"/>
					</g>
				</g>
			</g>
			<g>
				
					<radialGradient id="SVGID_8_" cx="316.3404" cy="2656.3091" r="455.8131" gradientTransform="matrix(1 0 0 1 0 -2268.1582)" gradientUnits="userSpaceOnUse">
					<stop  offset="0" style="stop-color:#F7F7F8"/>
					<stop  offset="0.6406" style="stop-color:#FDFDFE"/>
					<stop  offset="0.7151" style="stop-color:#FFFFFF"/>
				</radialGradient>
				<path class="st15" d="M604.1,535.6c0-40.1-14.9-76.7-39.5-104.5c-28.8-30.1-69.3-48.8-114.1-48.8
					c-87.2,0-157.8,70.6-157.8,157.8c0,40.1,14.9,76.7,39.7,104.5c28.8,30.1,69.3,48.8,114.1,48.8
					C533.4,693.4,604.1,622.8,604.1,535.6z"/>
			</g>
			<g>
				<g>
					<path class="st9" d="M588.2,466.5c8.7,19.6,13.6,41.3,13.6,64c0,87.2-70.6,157.8-157.8,157.8c-52.3,0-98.7-25.6-127.4-64.7
						c4.7,7.4,10,14.5,15.7,21c28.8,30.1,69.3,48.8,114.1,48.8c87.2,0,157.8-70.6,157.8-157.8C604.1,510.9,598.3,487.4,588.2,466.5z
						"/>
				</g>
			</g>
		</g>
		<g>
			<path class="st12" d="M376.2,534.4h-15.3v16.1h-4.7V514h22.6v3.9H361v12.5h15.3v4H376.2z"/>
			<path class="st12" d="M399.6,550.6c-0.3-0.5-0.5-1.5-0.7-2.8c-2.2,2.3-4.7,3.4-7.7,3.4c-2.7,0-4.8-0.8-6.6-2.3
				c-1.7-1.5-2.6-3.5-2.6-5.8c0-2.8,1.1-5,3.2-6.6c2.2-1.6,5.1-2.3,9-2.3h4.6V532c0-1.6-0.5-3-1.5-3.9c-0.9-0.9-2.4-1.5-4.3-1.5
				c-1.6,0-3.1,0.4-4.2,1.2c-1.1,0.8-1.6,1.9-1.6,3.1h-4.7c0-1.3,0.5-2.7,1.5-3.9c0.9-1.2,2.3-2.3,3.9-3c1.6-0.7,3.5-1.1,5.4-1.1
				c3.1,0,5.5,0.8,7.4,2.3c1.7,1.6,2.7,3.8,2.7,6.5v12.5c0,2.6,0.3,4.4,0.9,5.9v0.4H399.6L399.6,550.6z M391.9,547.1
				c1.5,0,2.8-0.4,4.2-1.1c1.3-0.8,2.3-1.7,2.8-3v-5.5h-3.6c-5.6,0-8.5,1.6-8.5,5c0,1.5,0.5,2.6,1.5,3.4
				C389.2,546.7,390.5,547.1,391.9,547.1z"/>
			<path class="st12" d="M424,527.6c-0.7-0.1-1.5-0.1-2.3-0.1c-3.1,0-5.1,1.3-6.2,3.9v19.2h-4.7v-27.2h4.6l0.1,3.1
				c1.5-2.4,3.6-3.6,6.5-3.6c0.9,0,1.6,0.1,2,0.4L424,527.6L424,527.6z"/>
			<path class="st12" d="M432.6,523.4l0.1,3c2-2.3,4.7-3.5,8.1-3.5c3.8,0,6.3,1.5,7.8,4.3c0.9-1.3,2-2.4,3.5-3.1
				c1.5-0.8,3.1-1.2,5.1-1.2c5.9,0,9,3.1,9.1,9.4v18.2h-4.7v-17.9c0-1.9-0.4-3.4-1.3-4.3c-0.9-0.9-2.4-1.5-4.4-1.5
				c-1.7,0-3.1,0.5-4.3,1.5c-1.2,1.1-1.7,2.4-2,4.2v18h-4.6v-17.8c0-3.9-1.9-5.9-5.8-5.9c-3.1,0-5.1,1.3-6.2,3.9v19.8h-4.7v-27.2
				h4.3V523.4z"/>
			<path class="st12" d="M484.5,551.1c-3.6,0-6.7-1.2-9-3.6c-2.3-2.4-3.5-5.6-3.5-9.7V537c0-2.7,0.5-5.1,1.5-7.3
				c1.1-2.2,2.4-3.8,4.3-5c1.9-1.2,3.9-1.7,6.1-1.7c3.5,0,6.3,1.2,8.2,3.5c2,2.3,3,5.6,3,10v1.9h-18.4c0.1,2.7,0.8,4.8,2.3,6.5
				c1.5,1.6,3.4,2.4,5.6,2.4c1.6,0,3.1-0.3,4.2-0.9c1.2-0.7,2.2-1.6,3-2.7l2.8,2.2C492.4,549.4,489.1,551.1,484.5,551.1z
				 M483.9,526.8c-1.9,0-3.5,0.7-4.7,2c-1.2,1.3-2,3.2-2.4,5.8h13.6v-0.4c-0.1-2.4-0.8-4.2-1.9-5.5
				C487.4,527.4,485.8,526.8,483.9,526.8z"/>
			<path class="st12" d="M513.5,527.6c-0.7-0.1-1.5-0.1-2.3-0.1c-3.1,0-5.1,1.3-6.2,3.9v19.2h-4.7v-27.2h4.6l0.1,3.1
				c1.5-2.4,3.6-3.6,6.5-3.6c0.9,0,1.6,0.1,2,0.4L513.5,527.6L513.5,527.6z"/>
			<path class="st12" d="M533.6,543.4c0-1.2-0.4-2.2-1.5-3c-0.9-0.7-2.6-1.3-5-1.7c-2.4-0.5-4.2-1.1-5.6-1.7
				c-1.3-0.7-2.4-1.5-3.1-2.6c-0.7-0.9-0.9-2.2-0.9-3.5c0-2.2,0.9-4.2,2.8-5.6c1.9-1.5,4.3-2.3,7.3-2.3c3.1,0,5.5,0.8,7.5,2.4
				s2.8,3.6,2.8,6.1h-4.7c0-1.2-0.5-2.4-1.6-3.2c-1.1-0.9-2.4-1.3-4-1.3s-3,0.4-4,1.1c-0.9,0.8-1.5,1.7-1.5,3c0,1.1,0.4,2,1.3,2.6
				c0.9,0.5,2.6,1.1,4.8,1.6c2.3,0.5,4.2,1.2,5.6,1.9c1.5,0.7,2.6,1.6,3.2,2.6c0.7,0.9,1.1,2.3,1.1,3.6c0,2.4-0.9,4.3-3,5.8
				c-1.9,1.5-4.4,2.2-7.5,2.2c-2.2,0-4-0.4-5.8-1.2c-1.6-0.8-3-1.9-3.9-3.2s-1.5-2.8-1.5-4.4h4.7c0.1,1.6,0.7,2.8,1.9,3.6
				c1.2,0.9,2.7,1.3,4.6,1.3c1.7,0,3.2-0.4,4.2-1.1C533.2,545.6,533.6,544.7,533.6,543.4z"/>
		</g>
	</g>
</g>
<g>
	<g>
		<path class="st16" d="M647.2,1063.7c0-52.5-19.6-100.5-51.9-136.9c-37.7-39.4-90.7-63.9-149.4-63.9
			c-114.1,0-206.6,92.5-206.6,206.6c0,52.5,19.6,100.5,51.9,136.9c37.7,39.4,90.7,63.9,149.4,63.9
			C554.7,1270.3,647.2,1177.8,647.2,1063.7z"/>
	</g>
	<g>
		<g>
			<g>
				<g>
					<g>
						<path class="st2" d="M601,1066.6c0,87.2-70.6,157.8-157.8,157.8s-157.6-70.6-157.6-157.8s70.6-157.6,157.8-157.6
							C530.3,908.9,601,979.5,601,1066.6z"/>
					</g>
				</g>
			</g>
			<g>
				
					<radialGradient id="SVGID_9_" cx="313.2519" cy="3187.2212" r="455.8131" gradientTransform="matrix(1 0 0 1 0 -2268.1582)" gradientUnits="userSpaceOnUse">
					<stop  offset="0" style="stop-color:#F7F7F8"/>
					<stop  offset="0.6406" style="stop-color:#FDFDFE"/>
					<stop  offset="0.7151" style="stop-color:#FFFFFF"/>
				</radialGradient>
				<path class="st17" d="M601,1066.6c0-40.1-14.9-76.7-39.5-104.5c-28.8-30.1-69.3-48.8-114.1-48.8c-87.2,0-157.8,70.6-157.8,157.8
					c0,40.1,14.9,76.7,39.7,104.5c28.8,30.1,69.3,48.8,114.1,48.8C530.3,1224.3,601,1153.7,601,1066.6z"/>
			</g>
			<g>
				<g>
					<path class="st9" d="M585.1,997.4c8.7,19.6,13.6,41.3,13.6,64c0,87.2-70.6,157.8-157.8,157.8c-52.3,0-98.7-25.6-127.4-64.7
						c4.7,7.4,10,14.5,15.7,21c28.8,30.1,69.3,48.8,114.1,48.8c87.2,0,157.8-70.6,157.8-157.8C601,1041.8,595.3,1018.3,585.1,997.4z
						"/>
				</g>
			</g>
		</g>
		<g>
			<path class="st12" d="M362.3,1051.2v-36.5h10.4c3.2,0,5.9,0.7,8.5,2.2c2.6,1.5,4.3,3.4,5.6,6.1s2,5.5,2,8.9v2.3
				c0,3.5-0.7,6.5-2,9s-3.2,4.6-5.6,5.9s-5.4,2.2-8.6,2.2H362.3z M367.2,1018.5v28.6h5.1c3.8,0,6.6-1.2,8.6-3.5
				c2-2.3,3.1-5.6,3.1-9.8v-2.2c0-4.2-0.9-7.4-3-9.7c-1.9-2.3-4.7-3.5-8.3-3.5L367.2,1018.5L367.2,1018.5z"/>
			<path class="st12" d="M406.6,1051.6c-3.6,0-6.7-1.2-9-3.6c-2.3-2.4-3.5-5.6-3.5-9.7v-0.8c0-2.7,0.5-5.1,1.5-7.3
				c1.1-2.2,2.4-3.8,4.3-5s3.9-1.7,6.1-1.7c3.5,0,6.3,1.2,8.2,3.5c2,2.3,3,5.6,3,10v1.9h-18.4c0.1,2.7,0.8,4.8,2.3,6.5
				c1.5,1.6,3.4,2.4,5.6,2.4c1.6,0,3.1-0.3,4.2-0.9c1.2-0.7,2.2-1.6,3-2.7l2.8,2.2C414.5,1049.9,411.2,1051.6,406.6,1051.6z
				 M406.1,1027.3c-1.9,0-3.5,0.7-4.7,2c-1.2,1.3-2,3.2-2.4,5.8h13.6v-0.4c-0.1-2.4-0.8-4.2-1.9-5.5
				C409.4,1028,407.9,1027.3,406.1,1027.3z"/>
			<path class="st12" d="M451.4,1051.2h-4.8v-16.9h-18.4v16.9h-4.8v-36.5h4.8v15.7h18.4v-15.7h4.8V1051.2z"/>
			<path class="st12" d="M476,1051.2c-0.3-0.5-0.5-1.5-0.7-2.8c-2.2,2.3-4.7,3.4-7.7,3.4c-2.7,0-4.8-0.8-6.6-2.3
				c-1.7-1.5-2.6-3.5-2.6-5.8c0-2.8,1.1-5,3.2-6.6c2.2-1.6,5.1-2.3,9-2.3h4.6v-2.2c0-1.6-0.5-3-1.5-3.9c-0.9-0.9-2.4-1.5-4.3-1.5
				c-1.6,0-3.1,0.4-4.2,1.2c-1.1,0.8-1.6,1.9-1.6,3.1h-4.7c0-1.3,0.5-2.7,1.5-3.9c0.9-1.2,2.3-2.3,3.9-3c1.6-0.7,3.5-1.1,5.4-1.1
				c3.1,0,5.5,0.8,7.4,2.3c1.7,1.6,2.7,3.8,2.7,6.5v12.5c0,2.6,0.3,4.4,0.9,5.9v0.4H476L476,1051.2z M468.2,1047.6
				c1.5,0,2.8-0.4,4.2-1.1c1.3-0.8,2.3-1.7,2.8-3v-5.5h-3.6c-5.6,0-8.5,1.6-8.5,5c0,1.5,0.5,2.6,1.5,3.4
				C465.5,1047.2,466.7,1047.6,468.2,1047.6z"/>
			<path class="st12" d="M503.8,1051.2c-0.3-0.5-0.5-1.5-0.7-2.8c-2.2,2.3-4.7,3.4-7.7,3.4c-2.7,0-4.8-0.8-6.6-2.3
				c-1.7-1.5-2.6-3.5-2.6-5.8c0-2.8,1.1-5,3.2-6.6c2.2-1.6,5.1-2.3,9-2.3h4.6v-2.2c0-1.6-0.5-3-1.5-3.9c-0.9-0.9-2.4-1.5-4.3-1.5
				c-1.6,0-3.1,0.4-4.2,1.2c-1.1,0.8-1.6,1.9-1.6,3.1h-4.7c0-1.3,0.5-2.7,1.5-3.9c0.9-1.2,2.3-2.3,3.9-3c1.6-0.7,3.5-1.1,5.4-1.1
				c3.1,0,5.5,0.8,7.4,2.3c1.7,1.6,2.7,3.8,2.7,6.5v12.5c0,2.6,0.3,4.4,0.9,5.9v0.4H503.8L503.8,1051.2z M496.2,1047.6
				c1.5,0,2.8-0.4,4.2-1.1c1.3-0.8,2.3-1.7,2.8-3v-5.5h-3.6c-5.6,0-8.5,1.6-8.5,5c0,1.5,0.5,2.6,1.5,3.4
				C493.5,1047.2,494.7,1047.6,496.2,1047.6z"/>
			<path class="st12" d="M521.3,1017.5v6.6h5.1v3.6h-5.1v16.8c0,1.1,0.3,1.9,0.7,2.4c0.4,0.5,1.2,0.8,2.3,0.8c0.5,0,1.2-0.1,2.2-0.3
				v3.8c-1.2,0.3-2.4,0.5-3.6,0.5c-2,0-3.6-0.7-4.7-1.9s-1.6-3.1-1.6-5.4v-16.8h-5v-3.6h5v-6.6L521.3,1017.5L521.3,1017.5z"/>
			<path class="st12" d="M385.9,1101.3c-0.4,3.9-1.9,6.9-4.3,8.9c-2.4,2.2-5.5,3.1-9.5,3.1c-4.3,0-7.8-1.5-10.4-4.7
				c-2.6-3.1-3.9-7.3-3.9-12.4v-3.5c0-3.4,0.7-6.3,1.9-8.9c1.2-2.6,3-4.6,5.1-5.9c2.2-1.3,4.8-2,7.7-2c3.9,0,7,1.1,9.3,3.2
				s3.8,5.1,4,9h-4.8c-0.4-3-1.3-5-2.7-6.3c-1.3-1.3-3.4-2-5.9-2c-3.1,0-5.5,1.2-7.3,3.4c-1.7,2.3-2.6,5.5-2.6,9.7v3.5
				c0,4,0.8,7.1,2.4,9.4c1.6,2.3,4,3.5,7,3.5c2.7,0,4.7-0.7,6.2-1.9c1.5-1.2,2.4-3.4,2.8-6.3L385.9,1101.3L385.9,1101.3z"/>
			<path class="st12" d="M403,1113.2c-3.6,0-6.7-1.2-9-3.6c-2.3-2.4-3.5-5.6-3.5-9.7v-0.8c0-2.7,0.5-5.1,1.5-7.3
				c1.1-2.2,2.4-3.8,4.3-5c1.9-1.2,3.9-1.7,6.1-1.7c3.5,0,6.3,1.2,8.2,3.5c1.9,2.3,3,5.6,3,10v1.9H395c0.1,2.7,0.8,4.8,2.3,6.5
				c1.5,1.6,3.4,2.4,5.6,2.4c1.6,0,3.1-0.3,4.2-0.9c1.1-0.7,2.2-1.6,3-2.7l2.8,2.2C411,1111.5,407.5,1113.2,403,1113.2z M402.4,1089
				c-1.9,0-3.5,0.7-4.7,2c-1.2,1.3-2,3.2-2.4,5.8h13.6v-0.4c-0.1-2.4-0.8-4.2-1.9-5.5C405.9,1089.6,404.4,1089,402.4,1089z"/>
			<path class="st12" d="M423.4,1085.7l0.1,3.4c2-2.6,4.8-3.9,8.1-3.9c5.8,0,8.6,3.2,8.7,9.7v17.9h-4.7v-17.9c0-2-0.4-3.4-1.3-4.3
				s-2.3-1.3-4.2-1.3c-1.5,0-2.8,0.4-4,1.2c-1.2,0.8-2,1.9-2.7,3.1v19.4h-4.7v-27.2H423.4L423.4,1085.7z"/>
			<path class="st12" d="M453.7,1079.1v6.6h5.1v3.6h-5.1v16.8c0,1.1,0.3,1.9,0.7,2.4c0.4,0.5,1.2,0.8,2.3,0.8c0.5,0,1.2-0.1,2.2-0.3
				v3.8c-1.2,0.3-2.4,0.5-3.6,0.5c-2,0-3.6-0.7-4.7-1.9c-1.1-1.2-1.6-3.1-1.6-5.4v-16.8h-5v-3.6h5v-6.6L453.7,1079.1L453.7,1079.1z"
				/>
			<path class="st12" d="M475.3,1113.2c-3.6,0-6.7-1.2-9-3.6c-2.3-2.4-3.5-5.6-3.5-9.7v-0.8c0-2.7,0.5-5.1,1.5-7.3
				c1.1-2.2,2.4-3.8,4.3-5s3.9-1.7,6.1-1.7c3.5,0,6.3,1.2,8.2,3.5c1.9,2.3,3,5.6,3,10v1.9h-18.4c0.1,2.7,0.8,4.8,2.3,6.5
				c1.5,1.6,3.4,2.4,5.6,2.4c1.6,0,3.1-0.3,4.2-0.9c1.1-0.7,2.2-1.6,3-2.7l2.8,2.2C483.3,1111.5,479.9,1113.2,475.3,1113.2z
				 M474.8,1089c-1.9,0-3.5,0.7-4.7,2c-1.2,1.3-2,3.2-2.4,5.8h13.6v-0.4c-0.1-2.4-0.8-4.2-1.9-5.5
				C478.3,1089.6,476.7,1089,474.8,1089z"/>
			<path class="st12" d="M504.4,1089.8c-0.7-0.1-1.5-0.1-2.3-0.1c-3.1,0-5.1,1.3-6.2,3.9v19.2h-4.6v-27.2h4.6l0.1,3.1
				c1.5-2.4,3.6-3.6,6.5-3.6c0.9,0,1.6,0.1,2,0.4L504.4,1089.8L504.4,1089.8z"/>
			<path class="st12" d="M524.6,1105.6c0-1.2-0.4-2.2-1.5-3c-0.9-0.7-2.6-1.3-5-1.7c-2.4-0.5-4.2-1.1-5.6-1.7
				c-1.3-0.7-2.4-1.5-3.1-2.6c-0.7-0.9-0.9-2.2-0.9-3.5c0-2.2,0.9-4.2,2.8-5.6c1.9-1.5,4.3-2.3,7.3-2.3c3.1,0,5.5,0.8,7.5,2.4
				c2,1.6,2.8,3.6,2.8,6.1h-4.7c0-1.2-0.5-2.4-1.6-3.2c-1.1-0.9-2.4-1.3-4-1.3s-3,0.4-4,1.1c-0.9,0.7-1.5,1.7-1.5,3
				c0,1.1,0.4,2,1.3,2.6c0.9,0.5,2.6,1.1,4.8,1.6c2.3,0.5,4.2,1.2,5.6,1.9c1.5,0.7,2.6,1.6,3.2,2.6c0.7,0.9,1.1,2.3,1.1,3.6
				c0,2.4-0.9,4.3-3,5.8c-1.9,1.5-4.4,2.2-7.5,2.2c-2.2,0-4-0.4-5.8-1.2c-1.6-0.8-3-1.9-3.9-3.2s-1.5-2.8-1.5-4.4h4.7
				c0.1,1.6,0.7,2.8,1.9,3.6c1.2,0.8,2.7,1.3,4.6,1.3c1.7,0,3.2-0.4,4.2-1.1C524,1107.7,524.6,1106.8,524.6,1105.6z"/>
		</g>
	</g>
</g>
<g id="Layer_2_1_">
</g>
<g id="Layer_2_2_">
</g>
<g>
	<g>
		<line class="st18" x1="1588.8" y1="506.5" x2="1517.8" y2="580.7"/>
		<g>
			<polygon class="st19" points="1504.7,594.4 1515.2,567.4 1518.7,579.7 1531.1,582.6 			"/>
		</g>
	</g>
</g>
<g>
	<g>
		<line class="st18" x1="1563.2" y1="831.1" x2="1665.8" y2="830.1"/>
		<g>
			<polygon class="st19" points="1684.8,829.9 1658.1,841.2 1664.5,830.1 1657.9,819.3 			"/>
		</g>
	</g>
</g>
<g>
	<g>
		<line class="st18" x1="1565.5" y1="1174.7" x2="1486.9" y2="1108.7"/>
		<g>
			<polygon class="st19" points="1472.3,1096.5 1499.9,1105.3 1487.9,1109.6 1485.8,1122.1 			"/>
		</g>
	</g>
</g>
<g>
	<g>
		<g>
			<line class="st18" x1="769" y1="1002.6" x2="686" y2="1024.5"/>
			<g>
				<polygon class="st19" points="670.7,1028.5 690,1014 687.2,1024.2 694.6,1031.6 				"/>
			</g>
		</g>
	</g>
	<g>
		<g>
			<line class="st18" x1="666.9" y1="992.2" x2="749.9" y2="970.4"/>
			<g>
				<polygon class="st19" points="765.3,966.3 745.9,980.9 748.7,970.7 741.3,963.2 				"/>
			</g>
		</g>
	</g>
</g>
<g>
	<g>
		<g>
			<line class="st18" x1="744.7" y1="659.5" x2="671.3" y2="615"/>
			<g>
				<polygon class="st19" points="657.8,606.8 681.6,610.6 672.4,615.6 672.2,626.2 				"/>
			</g>
		</g>
	</g>
	<g>
		<g>
			<line class="st18" x1="681.3" y1="578.9" x2="754.6" y2="623.4"/>
			<g>
				<polygon class="st19" points="768.2,631.6 744.3,627.8 753.6,622.8 753.8,612.2 				"/>
			</g>
		</g>
	</g>
</g>
<text transform="matrix(1 0 0 1 1693.7366 313.0838)"><tspan x="0" y="0" class="st12 st20 st21">Input</tspan><tspan x="-42.1" y="62" class="st12 st20 st21">Suppliers</tspan></text>
</svg>
