<svg xmlns="http://www.w3.org/2000/svg" viewBox="0 0 56 56"><defs><style>.cls-1{fill:#000;}</style></defs><title>menu</title><g id="Layer_2" data-name="Layer 2"><g id="Capa_1" data-name="Capa 1"><path class="cls-1" d="M28,0A28,28,0,1,0,56,28,28,28,0,0,0,28,0Zm0,54A26,26,0,1,1,54,28,26,26,0,0,1,28,54Z"/><path class="cls-1" d="M40,16H16a1,1,0,0,0,0,2H40a1,1,0,0,0,0-2Z"/><path class="cls-1" d="M40,27H16a1,1,0,0,0,0,2H40a1,1,0,0,0,0-2Z"/><path class="cls-1" d="M40,38H16a1,1,0,0,0,0,2H40a1,1,0,0,0,0-2Z"/></g></g></svg>